<svg width="23" height="23" fill="none" xmlns="http://www.w3.org/2000/svg"><path d="M11.022 2.022c2.947 0 3.294.008 4.464.065 1.076.044 1.654.232 2.044.383a3.4 3.4 0 0 1 1.264.838c.383.39.628.766.83 1.286.152.397.326.99.384 2.087.057 1.185.065 1.539.065 4.536 0 2.998-.008 3.352-.065 4.536-.044 1.09-.224 1.69-.383 2.088a3.47 3.47 0 0 1-.83 1.285 3.4 3.4 0 0 1-1.265.838c-.39.16-.975.34-2.044.383-1.163.058-1.517.065-4.464.065-2.947 0-3.293-.007-4.464-.065-1.076-.043-1.654-.231-2.044-.383a3.4 3.4 0 0 1-1.264-.838 3.557 3.557 0 0 1-.83-1.285c-.152-.398-.325-.99-.383-2.088-.058-1.184-.065-1.538-.065-4.536 0-2.997.007-3.351.065-4.536.043-1.09.224-1.69.383-2.087.202-.52.44-.896.83-1.286a3.4 3.4 0 0 1 1.264-.838c.39-.159.975-.34 2.044-.383 1.163-.05 1.517-.065 4.464-.065Zm0-2.022C8.025 0 7.65.014 6.48.072 5.31.13 4.5.318 3.8.592a5.285 5.285 0 0 0-1.95 1.3A5.505 5.505 0 0 0 .578 3.886C.303 4.594.116 5.417.065 6.609.007 7.801 0 8.184 0 11.232s.014 3.43.065 4.622c.058 1.192.246 2.008.513 2.723a5.566 5.566 0 0 0 1.271 1.994 5.404 5.404 0 0 0 1.95 1.3c.7.282 1.51.47 2.68.52 1.177.058 1.553.072 4.543.072s3.373-.014 4.543-.072c1.17-.058 1.98-.245 2.68-.52a5.286 5.286 0 0 0 1.95-1.3c.614-.628.99-1.25 1.272-1.994.274-.707.462-1.53.512-2.723.058-1.191.065-1.574.065-4.622S22.03 7.8 21.98 6.609c-.057-1.192-.245-2.008-.512-2.723a5.567 5.567 0 0 0-1.272-1.994 5.405 5.405 0 0 0-1.95-1.3c-.7-.281-1.51-.47-2.68-.52C14.396.014 14.012 0 11.023 0Z" fill="#fff"/><path d="M11.022 5.46c-3.135 0-5.663 2.579-5.663 5.764s2.536 5.764 5.663 5.764c3.128 0 5.663-2.579 5.663-5.764S14.15 5.46 11.022 5.46Zm0 9.505c-2.03 0-3.676-1.668-3.676-3.741 0-2.073 1.647-3.742 3.676-3.742 2.03 0 3.677 1.669 3.677 3.742s-1.647 3.741-3.677 3.741Zm5.888-8.391c.73 0 1.322-.602 1.322-1.344 0-.742-.592-1.343-1.322-1.343-.73 0-1.322.601-1.322 1.343s.592 1.344 1.322 1.344Z" fill="#fff"/></svg>