<svg width="60" height="60" fill="none" xmlns="http://www.w3.org/2000/svg"><g filter="url(#a)"><circle cx="30" cy="27" r="25" fill="#299B8E"/></g><path d="M28.704 13.055a13.994 13.994 0 0 0-8.591 4.047c-2.21 2.209-3.56 4.954-4.015 8.175-.103.766-.087 2.817.033 3.61.235 1.564.63 2.854 1.29 4.222l.427.886-.891 2.772c-.492 1.531-.913 2.877-.935 2.992-.11.678.541 1.328 1.22 1.22.114-.023 1.46-.444 2.99-.936l2.774-.891.885.426c1.368.662 2.658 1.056 4.222 1.29.793.121 2.844.137 3.61.034 3.22-.454 5.944-1.794 8.165-4.004 2.17-2.17 3.5-4.823 3.986-7.984.131-.88.131-2.948 0-3.828-.486-3.155-1.805-5.791-3.976-7.973-2.154-2.16-4.84-3.506-7.93-3.976-.683-.104-2.559-.148-3.264-.082Zm2.395 2.187c1.805.18 3.796.853 5.157 1.75 2.434 1.592 4.102 3.724 4.95 6.322.65 1.99.77 3.888.382 5.956-.246 1.285-.913 2.975-1.58 3.986-1.575 2.401-3.692 4.075-6.245 4.928-3.32 1.11-6.705.738-9.888-1.078-.613-.35-.623-.344-3.035.438-1.11.36-2.03.656-2.035.65-.005-.005.29-.924.651-2.034.815-2.499.804-2.39.334-3.226-1.006-1.789-1.499-3.5-1.586-5.524-.219-5.168 3.15-9.991 8.11-11.616 1.602-.524 3.205-.705 4.785-.552Z" fill="#fff"/><path d="M24.05 25.725a1.485 1.485 0 0 0-.47.323c-.547.547-.547 1.356 0 1.903.547.547 1.356.547 1.903 0 1.028-1.023-.06-2.712-1.433-2.226Zm5.47 0a1.479 1.479 0 0 0-.471.323c-.547.547-.547 1.356 0 1.903.547.547 1.356.547 1.903 0 1.028-1.023-.06-2.712-1.433-2.226Zm5.468 0c-.126.044-.34.186-.47.323-.547.547-.547 1.356 0 1.903.546.547 1.356.547 1.903 0 1.028-1.023-.06-2.712-1.433-2.226Z" fill="#fff"/><defs><filter id="a" x="0" y="0" width="60" height="60" filterUnits="userSpaceOnUse" color-interpolation-filters="sRGB"><feFlood flood-opacity="0" result="BackgroundImageFix"/><feColorMatrix in="SourceAlpha" values="0 0 0 0 0 0 0 0 0 0 0 0 0 0 0 0 0 0 127 0" result="hardAlpha"/><feOffset dy="3"/><feGaussianBlur stdDeviation="2.5"/><feColorMatrix values="0 0 0 0 0 0 0 0 0 0 0 0 0 0 0 0 0 0 0.2 0"/><feBlend in2="BackgroundImageFix" result="effect1_dropShadow_499_7534"/><feBlend in="SourceGraphic" in2="effect1_dropShadow_499_7534" result="shape"/></filter></defs></svg>