<svg width="60" height="60" fill="none" xmlns="http://www.w3.org/2000/svg"><g filter="url(#a)"><path fill-rule="evenodd" clip-rule="evenodd" d="M5 26.22c0 3.716.229 5.779 1.426 9.216.583 1.67 1.113 2.626 1.927 4.129.188.347.364.58.557.906.802 1.344 2.32 3.16 3.39 4.23a24.772 24.772 0 0 0 3.246 2.71c1.467 1.033 2.176 1.443 3.809 2.247C21.668 50.795 25.68 52 29.12 52h.132c2.756 0 4.076-.026 6.86-.723a25.09 25.09 0 0 0 2.323-.706c3.204-1.115 5.17-2.498 7.677-4.43C51.122 42.28 55 34.452 55 27.88c0-4.51-.532-7.757-2.31-11.46-2.705-5.631-6.526-9.288-12.045-12.075C38.005 3.009 33.874 2 30.88 2c-3.765 0-5.817.21-9.315 1.426-.696.243-1.513.566-2.144.884l-2.893 1.6c-4.1 2.45-7.09 6.29-9.217 10.51C5.97 19.075 5 23.213 5 26.22Z" fill="#31BBAC"/></g><path fill-rule="evenodd" clip-rule="evenodd" d="M20.196 43.145c.918-.301 4.196-2.375 5.129-2.76.327-.136 2.585.377 3.274.435 5.8.499 10.765-1.96 13.897-5.716 2.295-2.754 3.962-7.497 2.68-12.144-1.163-4.218-3.895-7.09-6.966-8.857-7.318-4.218-17.195-2.212-21.87 5.292-2.16 3.466-2.672 8.516-.77 12.56.772 1.64 1.971 3.457 3.287 4.625 1.505 1.335 1.34.612 1.34 2.53v4.035Z" fill="#fff"/><path fill-rule="evenodd" clip-rule="evenodd" d="M20.072 31.223c.629-.2 2.96-1.58 3.763-1.993 1.216-.623 2.558-1.532 3.722-2.011.742.631 3.515 3.796 4.006 4.15l4.182-4.386c1.14-1.284 3.18-3.267 4.15-4.464l-7.44 4.069c-.451-.272-1.617-1.653-2.012-2.084l-2.103-2.09-3.093 3.251c-.186.205-.314.376-.509.569l-4.666 4.989Z" fill="#31BBAC"/><defs><filter id="a" x="0" y="0" width="60" height="60" filterUnits="userSpaceOnUse" color-interpolation-filters="sRGB"><feFlood flood-opacity="0" result="BackgroundImageFix"/><feColorMatrix in="SourceAlpha" values="0 0 0 0 0 0 0 0 0 0 0 0 0 0 0 0 0 0 127 0" result="hardAlpha"/><feOffset dy="3"/><feGaussianBlur stdDeviation="2.5"/><feColorMatrix values="0 0 0 0 0 0 0 0 0 0 0 0 0 0 0 0 0 0 0.2 0"/><feBlend in2="BackgroundImageFix" result="effect1_dropShadow_499_7492"/><feBlend in="SourceGraphic" in2="effect1_dropShadow_499_7492" result="shape"/></filter></defs></svg>