<svg width="28" height="28" fill="none" xmlns="http://www.w3.org/2000/svg"><g clip-path="url(#a)" fill="#000"><path d="M13.563.465V.93h.875V0h-.876v.465Zm-1.165 1.602-.312.317.257.197c.536.4.99.553 1.657.553.678 0 1.263-.208 1.76-.635l.154-.126-.328-.322-.328-.323-.12.12c-.072.06-.252.17-.4.241-.547.246-1.542.12-1.865-.235-.049-.055-.109-.104-.125-.104-.022 0-.175.142-.35.317Zm-1.592 1.592-.312.317.224.202c.525.476 1.23.848 2.062 1.083.618.175 1.821.175 2.44 0 .83-.235 1.536-.607 2.06-1.083l.225-.202-.312-.317-.306-.312-.383.295c-.749.58-1.547.848-2.504.848-.957 0-1.756-.268-2.505-.848l-.383-.295-.306.312Z"/><path d="m4.55 7.263-4.562 2.39.033.792c.099 2.609.88 5.059 2.302 7.192.58.875 1.045 1.438 1.865 2.247l.722.717-.36 1.214-.367 1.208H-.001v.93h4.846l.568-1.898c.312-1.05.58-1.924.596-1.957.022-.044.449 2.57 1.154 7.093L7.29 28h.59c.515 0 .591-.01.619-.098.016-.05.377-1.313.798-2.8.421-1.488.788-2.757.804-2.817.022-.066.18.563.4 1.537.202.902.382 1.712.404 1.788l.033.148H28v-.93H11.648l-.028-.126c-.153-.667-.191-.842-.191-.918 0-.077.044-.077.454-.011a15.08 15.08 0 0 0 2.953.125c3.51-.235 6.568-1.613 9.034-4.074 2.538-2.532 3.965-5.78 4.107-9.351l.033-.82-4.572-2.396-4.572-2.4-.377.404c-.826.88-2.062 1.575-3.314 1.854-.498.115-1.925.098-2.428-.022-1.269-.306-2.472-.99-3.276-1.87a4.525 4.525 0 0 0-.344-.356c-.011 0-2.073 1.078-4.578 2.396Zm4.757-.941a7.485 7.485 0 0 0 3.467 1.695c.651.12 1.805.12 2.45 0 1.274-.246 2.598-.897 3.484-1.717.284-.263.344-.295.46-.252.07.028 1.88.974 4.013 2.1l3.889 2.046v.372c0 .202-.039.656-.082 1.011-.504 3.834-2.565 7.137-5.814 9.292-2.767 1.843-6.256 2.554-9.499 1.947l-.492-.093-.219-.974-.213-.968H9.586l-.18.657c-.099.36-.203.656-.23.656-.088 0-1.061-.46-1.559-.733-.426-.24-.503-.3-.53-.443-.017-.093-.104-.662-.203-1.274l-.175-1.105H5.53L5.39 19a5.392 5.392 0 0 0-.142.519c0 .159-.202.01-.678-.498-1.45-1.558-2.39-3.117-3.008-4.993-.35-1.05-.634-2.608-.634-3.461v-.372L4.883 8.11c2.17-1.148 3.976-2.089 4.014-2.089.038-.005.219.131.41.3ZM7.754 22.449c.202.11.552.28.782.378l.421.185-.481 1.674c-.263.924-.492 1.69-.503 1.7-.022.023-.651-3.926-.646-4.063 0-.093.017-.087.427.126Z"/><path d="M19.55 8.646a4.716 4.716 0 0 0-1.7.684c-.235.158-.323.186-.574.18-.35-.01-.613.039-.837.153-.284.148-.694.575-.924.974-.12.208-.23.388-.235.399 0 .005-.132-.071-.285-.175-.47-.312-.847-.432-1.405-.438-.804-.01-1.307.197-1.969.804l-.377.345-.317-.334a2.608 2.608 0 0 0-2.461-.787c-.159.033-.782.246-1.384.47-.602.224-1.285.481-1.515.569l-.426.153-.323-.481c-.41-.602-.613-.744-1.077-.744-.405 0-.728.186-.897.52-.099.196-.11.317-.11 1.35 0 1.264.033 1.411.383 1.756.219.219.416.328.7.372l.219.032.022.586c.016.525.033.612.164.81.202.305.432.398.962.398h.438l.377.427c.717.815 1.603 1.586 2.396 2.094 1.246.799 2.165 1.285 2.68 1.411.973.24 2.542.143 3.91-.246 1.099-.317 1.7-.607 3.423-1.635l1.208-.722.515.022c1.203.066 2.346-.36 3.253-1.203a4.488 4.488 0 0 0 .197-6.398 4.815 4.815 0 0 0-2.116-1.27c-.394-.103-1.531-.152-1.914-.076Zm1.641.957a3.537 3.537 0 0 1 2.341 1.887c.306.634.383.973.383 1.608 0 .634-.077.973-.383 1.608a3.388 3.388 0 0 1-1.548 1.58c-.607.3-1.006.4-1.64.4-.799.005-1.575-.241-2.144-.679l-.257-.197-.3.334-.302.328.263.208a3.7 3.7 0 0 0 .547.35c.153.082.268.17.251.191-.038.071-1.63 1.001-2.154 1.264-1.652.825-3.91 1.148-5.18.743-1.372-.437-2.35-1.695-2.466-3.155-.038-.47.05-.815.285-1.121l.136-.175-.284-.334-.29-.328-.164.159-.17.164-.19-.197a2.266 2.266 0 0 0-.422-.334c-.503-.295-.596-.312-2.16-.344l-1.471-.028-.131-.153c-.132-.153-.132-.17-.12-1.094.021-1.334.016-1.334 1.142.405.017.027.853-.257 1.86-.634 1.006-.378 1.952-.706 2.1-.728.793-.12 1.443.22 1.903.99.662 1.116 1.63 1.68 2.893 1.68H14v-.931h-.509c-.585 0-.907-.087-1.334-.366-.454-.3-.454-.273.055-.766.508-.492.798-.623 1.318-.623.842 0 1.433.487 1.673 1.378.235.88.563 1.35 1.285 1.848.23.16.427.28.432.274.071-.093.47-.705.47-.727 0-.017-.185-.153-.415-.312-.514-.356-.706-.634-.897-1.285-.142-.498-.142-.509-.055-.799.241-.765.7-1.301 1.116-1.301.077 0 .235.038.355.087l.22.088.36-.285c.946-.722 1.98-.946 3.117-.678ZM6.863 14.591c.307.142.525.333.695.601.087.148.115.301.131.717.011.295.071.716.126.94.055.224.098.41.087.421-.038.039-1.115-1.044-1.432-1.443l-.361-.46H4.977v-.94l.809.021c.689.017.842.039 1.077.143Z"/></g><defs><clipPath id="a"><path fill="#fff" d="M0 0h28v28H0z"/></clipPath></defs></svg>