<svg width="60" height="60" fill="none" xmlns="http://www.w3.org/2000/svg"><g filter="url(#a)"><circle cx="30" cy="27" r="25" fill="#61A8DE"/></g><path d="m39.053 16.37-23.68 9.065a.844.844 0 0 0 .068 1.604l6.018 1.746 2.246 7c.234.731 1.178.953 1.724.405l3.11-3.12 6.105 4.401c.748.539 1.812.139 2.001-.752l4.043-18.99c.198-.93-.733-1.704-1.635-1.36Zm-2.969 4.214-11 9.555a.577.577 0 0 0-.195.37l-.424 3.698c-.013.12-.185.137-.222.021l-1.742-5.515a.576.576 0 0 1 .253-.666l12.99-7.914c.298-.182.604.222.34.45Z" fill="#fff"/><defs><filter id="a" x="0" y="0" width="60" height="60" filterUnits="userSpaceOnUse" color-interpolation-filters="sRGB"><feFlood flood-opacity="0" result="BackgroundImageFix"/><feColorMatrix in="SourceAlpha" values="0 0 0 0 0 0 0 0 0 0 0 0 0 0 0 0 0 0 127 0" result="hardAlpha"/><feOffset dy="3"/><feGaussianBlur stdDeviation="2.5"/><feColorMatrix values="0 0 0 0 0 0 0 0 0 0 0 0 0 0 0 0 0 0 0.2 0"/><feBlend in2="BackgroundImageFix" result="effect1_dropShadow_499_7526"/><feBlend in="SourceGraphic" in2="effect1_dropShadow_499_7526" result="shape"/></filter></defs></svg>