<svg width="46" height="46" fill="none" xmlns="http://www.w3.org/2000/svg"><g clip-path="url(#a)"><path d="M45.768 23.116C45.768 10.477 35.523.23 22.884.23 10.246.231 0 10.477 0 23.116 0 35.754 10.246 46 22.884 46c12.639 0 22.884-10.246 22.884-22.884Z" fill="#45619D"/><path d="M25.171 9.13c-4.99 0-6.637 2.29-6.637 6.216v3.107h-3.278v4.665h3.278V37.1h6.046V23.118h4.109l.552-4.665H24.58v-2.771c0-1.253.275-1.889 2.22-1.889h2.44V9.131h-4.069Z" fill="#fff"/></g><defs><clipPath id="a"><path fill="#fff" transform="translate(0 .231)" d="M0 0h45.768v45.768H0z"/></clipPath></defs></svg>