<svg width="26" height="26" fill="none" xmlns="http://www.w3.org/2000/svg"><path d="M3.264.066c-.274.152-.584.782-.68 1.366a3.124 3.124 0 0 0 .188 1.59l.132.34-.498.492C.375 5.865-.432 8.724.253 11.461c.574 2.265 2.23 4.18 5.027 5.804.35.199.645.376.656.381.01.01-.061.117-.163.24-.696.862-.736 2.142-.102 3.239.265.452 1.057 1.244 1.59 1.59a8.947 8.947 0 0 0 2.483 1.106c.528.148 1.58.35 1.813.35.112 0 .122.021.122.22 0 .796.31 1.32.909 1.533a1.297 1.297 0 0 0 1.503-.528c.127-.209.229-.645.229-1.006 0-.198.01-.218.121-.218.234 0 1.285-.203 1.813-.35a8.947 8.947 0 0 0 2.483-1.108c.534-.345 1.326-1.137 1.59-1.59.635-1.096.594-2.376-.102-3.239-.101-.122-.172-.229-.162-.239.01-.005.305-.182.655-.38 2-1.163 3.377-2.433 4.255-3.926 1.214-2.056 1.341-4.712.346-6.987a7.82 7.82 0 0 0-1.727-2.499l-.497-.492.132-.34c.365-.91.264-1.97-.254-2.728-.214-.31-.554-.37-.762-.137-.132.148-.112.391.066.68.31.498.401 1.113.244 1.641-.046.142-.097.27-.122.284-.02.016-.219-.096-.442-.243C20.352 1.442 18.321.67 16.097.284 14.944.086 14.284.03 12.999.03s-1.945.056-3.097.254C7.677.67 5.646 1.442 4.042 2.52c-.224.147-.422.259-.442.243-.082-.045-.198-.548-.198-.832 0-.371.116-.767.335-1.123.213-.35.213-.467.025-.66-.157-.157-.315-.183-.498-.081Zm10.827.848c3.646.249 6.82 1.508 8.816 3.499.32.325.7.746.843.94a7.02 7.02 0 0 1 1.229 5.575c-.27 1.33-.91 2.478-2.001 3.57-1.29 1.295-2.778 2.209-5.866 3.595-1.63.732-2.178 1.006-2.574 1.285-.381.274-.549.477-.63.782-.066.254-.025.452.229 1.153.152.416.182.878.081 1.137-.04.097-.158.305-.27.468-.35.528-.451.807-.492 1.376-.04.589-.086.7-.304.792-.122.05-.183.05-.305 0-.218-.092-.264-.203-.305-.792-.04-.57-.142-.848-.492-1.377a3.33 3.33 0 0 1-.27-.467c-.101-.259-.07-.72.082-1.137.254-.696.294-.899.228-1.148-.162-.614-.645-.924-3.204-2.072-3.088-1.386-4.575-2.3-5.865-3.595C1.66 13.132.995 11.7.883 9.877a7.032 7.032 0 0 1 .873-3.763C2.442 4.89 3.65 3.732 5.143 2.849 7.561 1.432 10.927.7 14.091.914Zm-5.51 17.987c1.798.822 2.453 1.168 2.605 1.37.092.123.092.133-.04.478-.198.508-.229.615-.28 1.006-.056.447.005.817.199 1.198l.157.305-.218-.03c-.437-.067-1.367-.33-1.874-.529-.955-.38-1.61-.807-2.23-1.457-.538-.564-.766-1.031-.797-1.61-.015-.315 0-.493.066-.686.112-.335.518-.883.63-.853.046.015.848.376 1.782.808Zm10.934-.518c.32.421.406.72.38 1.249-.03.579-.259 1.046-.797 1.61-.62.65-1.275 1.076-2.23 1.457-.507.198-1.436.462-1.873.528l-.218.03.157-.304c.315-.625.295-1.224-.081-2.204-.132-.345-.132-.355-.04-.477.151-.203.852-.574 2.579-1.356a84.15 84.15 0 0 0 1.701-.787c.137-.087.193-.056.422.254Z" fill="#000"/><path d="M12.238 1.757C8.714 1.93 5.926 2.955 3.97 4.799 2.823 5.88 2.08 7.186 1.823 8.582c-.082.432-.082 1.498 0 1.98.213 1.295.868 2.463 1.955 3.49 1.086 1.03 2.66 1.98 5.134 3.092 1.807.812 1.93.873 2.361 1.122.239.137.594.356.787.482.427.275.625.346.94.346.314 0 .512-.071.94-.346.197-.127.548-.345.786-.482.432-.249.554-.31 2.361-1.122 1.179-.528 2.616-1.27 3.306-1.701 2.641-1.656 3.845-3.49 3.845-5.87 0-.366-.026-.808-.061-.991-.264-1.402-1-2.702-2.148-3.783-1.712-1.615-4.14-2.63-7.013-2.94-.691-.077-2.2-.132-2.778-.102Zm2.488.94c2.433.218 4.753 1.081 6.272 2.335 1.706 1.407 2.549 3.19 2.361 5.012-.163 1.575-.94 2.819-2.514 4.033-.893.69-2.869 1.757-4.773 2.574-1.006.432-1.595.736-2.382 1.224-.31.198-.62.355-.69.355-.072 0-.381-.157-.691-.355-.787-.488-1.376-.792-2.382-1.224-1.904-.817-3.88-1.884-4.773-2.574-1.574-1.214-2.351-2.458-2.514-4.033-.142-1.38.29-2.711 1.275-3.925.736-.904 1.63-1.6 2.803-2.178 2.199-1.092 4.951-1.519 8.008-1.245Z" fill="#000"/><path d="M4.58 6.55c-.153.062-.265.33-.214.503.081.264.559 1.224.66 1.326.234.233.711.04.711-.29 0-.076-.147-.441-.32-.802-.249-.508-.355-.675-.462-.726-.157-.071-.213-.071-.376-.01Zm16.449.016c-.148.071-.767 1.3-.767 1.523 0 .33.477.523.71.29.102-.102.58-1.062.66-1.326.057-.177-.065-.441-.228-.502-.162-.061-.218-.061-.375.015ZM5.85 9.207c-.203.213-.153.406.269 1.025.213.305.431.6.487.645.254.213.655.01.655-.33 0-.132-.086-.3-.335-.675-.467-.69-.558-.782-.782-.782a.372.372 0 0 0-.294.117Zm13.706.02c-.27.254-.818 1.132-.818 1.305 0 .315.274.503.569.39.198-.075.955-1.198.955-1.416 0-.376-.422-.543-.706-.28Zm-11.939 2.3c-.244.244-.173.473.274.91.239.233.31.279.467.279.142 0 .213-.036.305-.143.213-.243.157-.41-.274-.858-.25-.249-.31-.29-.478-.29a.405.405 0 0 0-.294.102Zm9.993.188c-.447.462-.497.635-.248.884.238.233.365.203.782-.204.335-.325.365-.37.365-.563 0-.264-.152-.406-.426-.406-.158 0-.229.04-.473.29Z" fill="#000"/></svg>