<svg width="18" height="18" fill="none" xmlns="http://www.w3.org/2000/svg"><path d="M9.17 7.936c-.161-.092-.324-.178-.476-.285-.146-.102-.272-.205-.419-.304-.078-.054-.25-.106-.25-.157v.419c0 .241-.018 1.484-.016 1.64.004.26-.016.521-.006.782.009.248.01.486.002.746 0 0 .62-.302.703-.354.319-.2.631-.418.958-.605.16-.091.326-.173.48-.276.138-.095.678-.548.697-.537-.25-.152-.491-.311-.75-.446-.333-.172-.6-.436-.923-.622Z" fill="#C12025"/><path d="M9 0a9 9 0 0 0-9 9 9 9 0 0 0 9 9 9 9 0 0 0 9-9 9 9 0 0 0-9-9Zm4.943 10.953c-.093.437-.21.895-.51 1.241-.326.375-.887.276-1.335.309-1.09.079-2.177.005-3.268.033-.448.012-.89.002-1.337-.02-.445-.023-.91.025-1.355-.01-.27-.023-.542-.023-.81-.056-.216-.027-.542-.058-.705-.221-.08-.08-.106-.203-.174-.295l-.1-.173c-.427-.911-.418-1.914-.42-2.91-.001-.369.044-.737.034-1.107-.007-.238.102-.465.117-.705a1.57 1.57 0 0 1 .177-.682c.227-.407.342-.598.763-.771.212-.087.605-.11.831-.106.27.004.54.003.808 0 .547-.007 1.093-.023 1.64-.021.475.001.956.004 1.43.033.475.03.952-.016 1.428-.004.392.01.785.01 1.177.038.293.022.634.057.889.22.153.098.323.228.392.389.2.465.366.937.394 1.447.03.522.036 1.045.05 1.567l.008.27a6.403 6.403 0 0 1-.124 1.534Z" fill="#C12025"/></svg>