<svg width="52" height="52" fill="none" xmlns="http://www.w3.org/2000/svg"><path d="M26.491 22.927c-.465-.267-.936-.515-1.375-.824-.421-.296-.787-.592-1.21-.88-.226-.154-.722-.305-.722-.453v1.21c0 .698-.053 4.288-.046 4.738.012.754-.047 1.507-.02 2.26.027.718.031 1.404.006 2.154 0 0 1.794-.871 2.034-1.022.92-.58 1.822-1.208 2.765-1.747.463-.264.943-.499 1.385-.798.403-.273 1.961-1.584 2.015-1.55-.72-.44-1.418-.9-2.168-1.29-.96-.498-1.729-1.26-2.664-1.798Z" fill="#C12025"/><path d="M26 0C11.64 0 0 11.64 0 26s11.64 26 26 26 26-11.64 26-26S40.36 0 26 0Zm14.28 31.64c-.268 1.266-.606 2.589-1.474 3.588-.941 1.082-2.562.797-3.857.89-3.148.228-6.29.016-9.44.098a50.52 50.52 0 0 1-3.863-.06c-1.285-.063-2.63.074-3.915-.03-.78-.063-1.564-.065-2.34-.16-.623-.077-1.565-.168-2.037-.639-.229-.229-.304-.584-.503-.851l-.286-.5c-1.234-2.632-1.21-5.53-1.215-8.404-.003-1.068.127-2.13.098-3.2-.018-.69.295-1.343.338-2.037.043-.696.175-1.367.512-1.972.655-1.175.987-1.727 2.205-2.226.61-.25 1.747-.32 2.4-.307.778.013 1.558.01 2.335 0 1.579-.018 3.156-.065 4.735-.06 1.373.004 2.764.01 4.134.096 1.371.085 2.748-.046 4.124-.011 1.133.028 2.269.026 3.4.11.846.062 1.833.165 2.569.635.441.282.932.66 1.131 1.122.578 1.346 1.06 2.708 1.14 4.18.084 1.51.103 3.02.144 4.53l.023.78c.05 1.48-.051 2.98-.357 4.428Z" fill="#C12025"/></svg>