<svg width="24" height="25" fill="none" xmlns="http://www.w3.org/2000/svg"><circle cx="12" cy="12.927" r="12" fill="#fff"/><path d="M16.656 15.279c-.778-.62-1.567-.996-2.335-.377l-.46.375c-.335.271-.959 1.54-3.372-1.047-2.412-2.583-.977-2.986-.64-3.255l.46-.374c.765-.62.477-1.402-.074-2.206l-.333-.487c-.554-.802-1.157-1.33-1.923-.71l-.414.338A3.605 3.605 0 0 0 6.05 9.933c-.276 1.704.595 3.654 2.593 5.795 1.994 2.142 3.947 3.217 5.798 3.199 1.537-.016 2.466-.785 2.756-1.064l.416-.338c.764-.62.29-1.25-.49-1.871l-.467-.375Z" fill="#F58A07"/></svg>