<svg width="13" height="13" fill="none" xmlns="http://www.w3.org/2000/svg"><circle cx="6.5" cy="6.5" r="6.5" fill="#31BBAC"/><path d="M9.022 7.774c-.421-.336-.849-.54-1.265-.204l-.249.203c-.181.147-.52.834-1.826-.567-1.307-1.4-.53-1.617-.347-1.763l.25-.203c.413-.336.257-.76-.041-1.195l-.18-.264c-.3-.434-.627-.72-1.042-.384l-.224.183a1.95 1.95 0 0 0-.821 1.298c-.15.923.323 1.98 1.404 3.14C5.761 9.177 6.82 9.76 7.822 9.75c.833-.008 1.336-.425 1.493-.576l.225-.183c.414-.336.157-.677-.265-1.014l-.253-.203Z" fill="#fff"/></svg>