<svg width="25" height="27" fill="none" xmlns="http://www.w3.org/2000/svg"><path d="M21.36.08c-.828.2-1.524.753-1.866 1.48-.122.254-.143.275-.37.307-.58.09-1.36.638-1.719 1.213-.132.21-.205.284-.263.263-.797-.337-1.514-.163-2.2.538l-.39.396-.3-.111c-.38-.148-1.013-.195-1.387-.105a3.721 3.721 0 0 0-.675.268l-.385.206-.206-.18c-.438-.4-1.05-.58-1.82-.548l-.484.021-.085-.305C8.846 2.215 7.903 1.36 6.447 1.018c-.533-.122-1.767-.127-2.31 0C2.06 1.492.7 3.027.81 4.778c.031.522.221.991.553 1.35l.211.226-.131.396c-.116.337-.132.459-.106.844.01.248.063.548.11.664.09.216.09.222-.068.464-.321.512-.342 1.123-.063 1.688l.158.316-.232.248a3.031 3.031 0 0 0-.38.527c-.131.259-.147.338-.147.812 0 .454.016.56.126.765.069.132.159.274.196.322.063.074.047.142-.159.538-.38.748-.48 1.186-.48 2.146 0 .786.006.828.148 1.134.3.648.87 1.192 1.408 1.35.2.063.206.068.243.358.015.164.105.591.19.955.116.5.168.87.2 1.555.068 1.282.095 1.514.21 1.883.212.68.55.96 1.161.965.991 0 1.36-.822 1.303-2.921-.022-.865-.043-1.06-.19-1.656-.222-.907-.222-.886.116-1.007a4.328 4.328 0 0 0 1.213-.718c1.223-1.08 1.524-3.137.627-4.313-.126-.164-.132-.19-.068-.343a2.798 2.798 0 0 0 .158-1.63 1.779 1.779 0 0 0-.459-.896l-.19-.2.095-.264c.18-.49.169-.844-.047-1.503-.032-.1-.01-.105.216-.084.137.01.459-.011.712-.048l.464-.063.253.195c.638.485 1.492.722 2.262.617a4.02 4.02 0 0 0 .78-.195l.349-.137.242.163c.997.691 2.416.649 3.328-.09.2-.163.274-.184.701-.226.823-.09 1.192-.211 1.635-.533.216-.158.269-.174.66-.18.231-.004.463-.025.516-.047.074-.036.105-.015.127.08.02.068.1.253.184.406l.148.284-.19.306c-.443.723-.448 1.55-.005 2.194l.179.258-.137.259c-.317.606-.164 1.53.364 2.193l.153.196-.132.179c-.306.406-.475.896-.512 1.44l-.01.21-.501.006c-.364.01-.596.042-.85.132l-.353.116-.316-.311c-.564-.56-1.192-.791-2.278-.844-2.183-.106-3.723.754-4.15 2.31-.085.305-.095.643-.095 3.554 0 3.544-.005 3.49.342 4.23.428.922 1.013 1.423 1.815 1.56.96.163 1.845-.38 2.378-1.45.337-.691.395-1.013.395-2.347v-1.113l.385-.063c.206-.037.507-.11.654-.168l.28-.1.153.11c.485.343 1.213.511 1.82.427.363-.053.938-.3 1.291-.559a.638.638 0 0 1 .396-.132c.31 0 .838-.137 1.17-.3.348-.169.76-.57.892-.86.073-.169.12-.21.231-.21.074 0 .259-.059.407-.127.796-.37 1.15-1.145 1.023-2.252-.032-.264-.069-.501-.085-.527-.01-.022.053-.148.153-.275.554-.727.612-1.698.132-2.404l-.153-.232.132-.296c.184-.416.221-.76.116-1.17-.1-.385-.338-.844-.57-1.087l-.158-.163.106-.153c.179-.253.327-.77.327-1.15 0-.364-.143-.87-.327-1.17l-.1-.174.142-.354a2.596 2.596 0 0 0-.063-2.004l-.122-.284.253-.327c.354-.449.549-.823.755-1.408.168-.49.168-.522.174-1.424 0-.723-.022-.997-.095-1.266C24.229.912 23.59.28 22.63.074a2.947 2.947 0 0 0-1.27.005Zm1.382.964c.738.327 1.028 1.013.98 2.32-.02.549-.052.744-.168 1.066a3.59 3.59 0 0 1-.807 1.323c-.237.259-.332.406-.332.507 0 .079.1.348.222.595.21.422.226.475.226.907 0 .454 0 .46-.221.776-.274.385-.29.564-.074.806.522.596.543 1.293.058 1.936-.3.395-.285.517.1.917.396.422.607.818.601 1.145-.005.258-.105.511-.258.638a.924.924 0 0 0-.163.242c-.09.217-.006.438.242.67.385.348.475.844.248 1.324-.069.142-.174.31-.237.364a1.566 1.566 0 0 0-.222.28c-.105.168-.105.178-.016.58.253 1.122 0 1.797-.717 1.887-.532.069-.622.132-.728.533-.131.48-.57.727-1.445.812-.268.026-.495.053-.495.053a3.82 3.82 0 0 0-.264.21 1.77 1.77 0 0 1-1.15.422c-.427 0-.7-.1-1.096-.395-.364-.274-.507-.295-.839-.11-.554.305-1.703.379-2.236.142-.553-.248-.907-.755-.98-1.424-.032-.29-.075-.422-.159-.517a.443.443 0 0 0-.627.01c-.243.259-.1 1.192.274 1.778.337.532 1.055 1.033 1.614 1.123l.22.037v1.112c0 .934-.015 1.176-.1 1.466-.32 1.134-1.006 1.683-1.813 1.45-.464-.137-.87-.643-1.124-1.402-.084-.264-.095-.564-.116-3.133-.02-3.08.006-3.543.227-4.007.253-.533.85-.955 1.661-1.176.49-.132 1.846-.127 2.294.005.454.132.786.364 1.118.78.401.507.459.523 1.013.243.427-.216.48-.227.907-.227.422 0 .485.016.833.2.527.275.77.248.896-.084.064-.163.016-.332-.174-.58-.274-.364-.274-.87-.01-1.329.137-.227.438-.553.517-.553.073 0 .2-.354.163-.46-.016-.052-.174-.242-.343-.426-.369-.401-.516-.675-.553-1.034-.032-.306.042-.496.305-.823.222-.263.2-.427-.084-.733-.253-.268-.443-.638-.448-.854 0-.264.158-.67.358-.896.386-.433.407-.56.164-.892-.211-.29-.348-.606-.374-.843-.016-.164 0-.185.116-.2.86-.106 1.555-.77 1.74-1.667.121-.59-.048-.981-.433-.981-.258 0-.39.185-.427.606-.068.697-.49 1.118-1.192 1.182-.332.031-.385.052-.6.253-.438.406-.644.459-1.092.28-.396-.159-.607-.075-.723.29-.095.29-.559.442-1.608.532-.322.026-.39.053-.701.285-.48.353-.85.49-1.345.495-.475 0-.812-.137-1.271-.516-.364-.301-.48-.306-.97-.058-.881.443-1.857.316-2.574-.338-.163-.148-.353-.28-.417-.295-.068-.016-.31.016-.537.079-.49.126-.77.132-1.271.026-.76-.158-1.545-.654-1.994-1.255-.126-.163-.179-.195-.342-.195-.354.005-.544.285-.412.596.158.385.96 1.118 1.461 1.34.206.09.253.142.285.284.02.1.116.285.21.417.354.485.354.97 0 1.418-.237.301-.252.575-.047.739.08.063.185.11.238.11.295 0 .574.517.574 1.055 0 .411-.084.622-.321.85-.317.294-.29.437.153.88.427.422.537.675.537 1.265 0 .755-.237 1.36-.754 1.894a2.672 2.672 0 0 1-1.34.754c-.205.047-.347.11-.453.221-.153.153-.153.158-.116.585.016.238.106.728.195 1.092.264 1.081.27 2.806.016 3.343-.153.322-.374.296-.516-.063-.111-.274-.138-.517-.196-1.672-.037-.812-.079-1.133-.205-1.698-.09-.384-.18-.88-.195-1.107-.048-.559-.111-.67-.454-.786-.596-.19-1.007-.49-1.218-.886-.106-.195-.116-.295-.116-.954.005-.854.084-1.166.464-1.783.395-.643.417-.69.353-.86a1.084 1.084 0 0 0-.21-.31c-.465-.48-.401-1.145.142-1.598.633-.522.675-.633.353-1.018-.5-.601-.506-.975-.016-1.508.259-.28.264-.443.037-.754-.163-.216-.174-.264-.174-.66 0-.374.021-.458.174-.753.248-.486.232-.586-.169-1.002-.474-.501-.532-.628-.527-1.171 0-.533.095-.823.432-1.334.401-.612 1.103-1.076 1.967-1.308.586-.158 1.693-.169 2.21-.032 1.081.29 1.777.95 2.025 1.914.048.18.084.412.084.517 0 .27.127.485.317.549.132.047.221.037.5-.069a2.01 2.01 0 0 1 1.293-.047c.358.105.553.295.601.59a.73.73 0 0 0 .169.364c.21.211.443.143.807-.221.664-.67 1.492-.78 2.22-.29.39.258.659.205.849-.174.258-.507.717-.913 1.075-.939.312-.021.433.01.733.19.17.1.375.184.454.184.153 0 .422-.179.422-.28 0-.036.068-.21.153-.39.3-.627.865-1.033 1.53-1.101.184-.022.368-.074.421-.122.053-.047.158-.248.243-.443.237-.585.706-1.028 1.239-1.181.327-.095.98-.053 1.276.08Z" fill="#000"/></svg>