<svg width="44" height="44" fill="none" xmlns="http://www.w3.org/2000/svg"><g filter="url(#a)"><circle cx="20.514" cy="19.486" r="17.514" fill="#fff"/><circle cx="20.514" cy="19.486" r="17.014" stroke="#31BBAC"/></g><mask id="b" style="mask-type:alpha" maskUnits="userSpaceOnUse" x="3" y="1" width="36" height="36"><circle cx="20.514" cy="18.514" r="17.014" fill="#fff" stroke="#299B8E"/></mask><g mask="url(#b)" fill="#31BBAC"><path d="M20.204 21.503c1.855 0 3.46-.665 4.773-1.977 1.312-1.312 1.977-2.917 1.977-4.772 0-1.854-.665-3.46-1.978-4.772-1.312-1.312-2.918-1.977-4.772-1.977s-3.46.665-4.772 1.977c-1.312 1.312-1.977 2.918-1.977 4.772 0 1.855.665 3.46 1.978 4.772 1.312 1.312 2.917 1.977 4.771 1.977Zm11.809 8.049a16.678 16.678 0 0 0-.227-1.77 13.964 13.964 0 0 0-.435-1.78 8.798 8.798 0 0 0-.732-1.66 6.266 6.266 0 0 0-1.104-1.439 4.865 4.865 0 0 0-1.585-.996 5.478 5.478 0 0 0-2.023-.366c-.287 0-.563.117-1.098.465-.328.215-.713.463-1.142.737-.367.234-.865.453-1.479.651a5.865 5.865 0 0 1-1.808.293 5.88 5.88 0 0 1-1.809-.293c-.613-.198-1.11-.417-1.477-.65-.425-.273-.81-.52-1.144-.738-.534-.348-.81-.465-1.096-.465-.729 0-1.41.123-2.024.366a4.86 4.86 0 0 0-1.585.997 6.266 6.266 0 0 0-1.103 1.437 8.815 8.815 0 0 0-.732 1.66 13.987 13.987 0 0 0-.436 1.78 16.879 16.879 0 0 0-.227 1.772 24.018 24.018 0 0 0-.056 1.655c0 1.463.465 2.647 1.382 3.52.906.862 2.104 1.3 3.561 1.3h13.493c1.457 0 2.655-.438 3.56-1.3.918-.873 1.383-2.057 1.383-3.52 0-.565-.02-1.122-.057-1.655Z"/></g><defs><filter id="a" x="0" y=".973" width="43.027" height="43.027" filterUnits="userSpaceOnUse" color-interpolation-filters="sRGB"><feFlood flood-opacity="0" result="BackgroundImageFix"/><feColorMatrix in="SourceAlpha" values="0 0 0 0 0 0 0 0 0 0 0 0 0 0 0 0 0 0 127 0" result="hardAlpha"/><feOffset dx="1" dy="3"/><feGaussianBlur stdDeviation="2"/><feComposite in2="hardAlpha" operator="out"/><feColorMatrix values="0 0 0 0 0 0 0 0 0 0 0 0 0 0 0 0 0 0 0.1 0"/><feBlend in2="BackgroundImageFix" result="effect1_dropShadow_499_6534"/><feBlend in="SourceGraphic" in2="effect1_dropShadow_499_6534" result="shape"/></filter></defs></svg>