<svg width="28" height="20" fill="none" xmlns="http://www.w3.org/2000/svg"><path d="M5.578.107a10.1 10.1 0 0 0-1.99.405C2.28.91 2.242.949 2.242 1.972v.7h-.94c-1.017 0-1.094.022-1.242.312C.017 3.07 0 5.368 0 11.285c0 8.99-.022 8.406.328 8.586.143.071 1.701.082 13.672.082s13.53-.01 13.672-.082c.35-.18.328.405.328-8.586 0-7.541-.005-8.197-.093-8.34-.142-.246-.279-.273-1.247-.273h-.902v-.7c0-1.006-.005-1.012-1.176-1.406-2.444-.82-5.414-.623-8.093.547a15.7 15.7 0 0 0-2.171 1.182l-.312.213-.536-.345C11.03.593 8.16-.155 5.578.107Zm2.51 1.225c1.663.235 3.27.853 4.808 1.843l.503.328v7.35c0 4.042-.006 7.35-.017 7.35-.01 0-.295-.159-.629-.35-1.383-.787-2.87-1.296-4.577-1.57-.569-.092-2.494-.092-3.062 0a16.41 16.41 0 0 0-1.597.367l-.126.033V1.813l.235-.087a8.521 8.521 0 0 1 1.548-.389c.656-.103 2.204-.103 2.915-.005Zm14.69 0c.547.082 1.443.306 1.7.421l.132.06v7.432c0 7.055-.006 7.432-.093 7.405-1.214-.383-2.855-.547-4.146-.421-1.81.175-3.713.793-5.239 1.69a7.426 7.426 0 0 1-.508.284c-.011 0-.022-3.308-.022-7.35v-7.35l.536-.344c1.416-.92 3.16-1.597 4.725-1.821.71-.104 2.242-.104 2.915-.006ZM2.253 10.798l.017 6.979.186.164c.23.207.41.191 1.17-.088.673-.246 1.411-.4 2.302-.476 1.674-.142 3.768.274 5.42 1.072l.601.29-5.397.005-5.403.006V3.82h1.093l.011 6.978Zm24.599.487v7.465h-5.398l-5.403-.006.356-.18c.59-.306 1.575-.673 2.242-.848 1.011-.257 1.722-.35 2.761-.344 1.133 0 1.942.126 2.866.454.88.306 1.04.322 1.269.115l.186-.164.016-6.979.011-6.978h1.094v7.465Z" fill="#fff"/></svg>