<svg width="60" height="60" fill="none" xmlns="http://www.w3.org/2000/svg"><g filter="url(#a)"><circle cx="30" cy="27" r="25" fill="#0F59AF"/></g><path d="M31.107 12.047c-.576.267-.751 1.03-.352 1.502.218.26.485.357.95.357 1.085 0 2.61.266 3.803.666 4.111 1.368 7.248 4.82 8.24 9.052.2.841.285 1.471.34 2.518.036.77.054.842.206 1.042a.956.956 0 0 0 1.622-.152c.127-.242.133-.314.097-1.138-.327-7.562-6.375-13.617-13.895-13.901-.636-.024-.872-.012-1.012.054Zm-10.094 3.815c-.587.2-.945.478-1.901 1.447-1.102 1.12-1.52 1.75-1.883 2.803-.406 1.193-.412 2.537-.018 4.348.442 2.022 1.731 4.704 3.306 6.866 3.511 4.82 8.579 8.452 13.253 9.506.66.151.836.163 1.998.163 1.145.006 1.326-.012 1.786-.133a7.348 7.348 0 0 0 1.86-.836c.465-.302 2.082-1.895 2.385-2.349.617-.926.642-2.216.048-3.154-.23-.364-2.973-3.149-3.463-3.518a3.353 3.353 0 0 0-.696-.388c-.442-.17-1.217-.224-1.653-.12-.684.163-.945.338-1.914 1.289l-.914.902-.569-.381a25.78 25.78 0 0 1-6.945-6.945l-.381-.57.902-.914c.95-.968 1.126-1.229 1.29-1.913.102-.436.048-1.21-.122-1.653-.205-.545-.538-.938-2.185-2.56-1.599-1.575-1.847-1.775-2.5-1.944-.485-.134-1.206-.103-1.684.054Zm1.296 1.853c.187.073 3.142 3.051 3.239 3.263.103.23.097.594-.018.818-.055.109-.582.684-1.175 1.283-.593.6-1.108 1.15-1.144 1.223-.115.224-.079.588.09.902.237.448 1.127 1.78 1.642 2.459a24.624 24.624 0 0 0 2.252 2.615c1.67 1.702 3.1 2.87 4.965 4.045 1.32.835 1.283.841 2.821-.678 1.75-1.726 1.574-1.738 3.681.35.83.824 1.544 1.569 1.593 1.66.103.194.109.575.018.811-.03.097-.351.466-.709.83-.938.956-1.507 1.332-2.434 1.622-.375.121-.587.146-1.21.14-1.544 0-3.27-.479-5.147-1.417-5.322-2.67-10.238-8.307-11.558-13.26-.503-1.877-.479-3.027.09-4.226.243-.527.328-.636 1.12-1.435.473-.478.94-.908 1.048-.963.212-.103.618-.127.836-.042Z" fill="#fff"/><path d="M31.773 18.163c-.527.248-.745.933-.436 1.375.236.35.4.436 1.017.49 1.599.151 2.707.624 3.73 1.592 1.156 1.09 1.756 2.38 1.883 4.051.06.739.176.957.605 1.144.473.212.993.012 1.23-.472.12-.254.127-.333.09-.92-.26-3.984-3.36-7.09-7.302-7.308-.478-.024-.678-.012-.817.048Z" fill="#fff"/><defs><filter id="a" x="0" y="0" width="60" height="60" filterUnits="userSpaceOnUse" color-interpolation-filters="sRGB"><feFlood flood-opacity="0" result="BackgroundImageFix"/><feColorMatrix in="SourceAlpha" values="0 0 0 0 0 0 0 0 0 0 0 0 0 0 0 0 0 0 127 0" result="hardAlpha"/><feOffset dy="3"/><feGaussianBlur stdDeviation="2.5"/><feColorMatrix values="0 0 0 0 0 0 0 0 0 0 0 0 0 0 0 0 0 0 0.2 0"/><feBlend in2="BackgroundImageFix" result="effect1_dropShadow_499_7502"/><feBlend in="SourceGraphic" in2="effect1_dropShadow_499_7502" result="shape"/></filter></defs></svg>