<svg width="46" height="46" fill="none" xmlns="http://www.w3.org/2000/svg"><circle cx="23.286" cy="22.785" r="21.554" fill="#fff"/><path d="M23.317 20.18c-.41-.236-.825-.454-1.211-.726-.37-.26-.692-.52-1.065-.775-.199-.135-.636-.268-.636-.398v1.065c0 .614-.046 3.774-.04 4.17.01.663-.04 1.326-.017 1.989.023.632.027 1.236.005 1.896 0 0 1.58-.767 1.79-.9.81-.51 1.604-1.063 2.434-1.537.408-.233.83-.44 1.22-.702.353-.24 1.725-1.395 1.773-1.365-.634-.387-1.248-.792-1.909-1.135-.844-.438-1.522-1.109-2.345-1.582Z" fill="#C12025"/><path d="M22.884 0C10.245 0 0 10.245 0 22.884c0 12.639 10.245 22.884 22.884 22.884 12.639 0 22.884-10.245 22.884-22.884C45.768 10.245 35.523 0 22.884 0Zm12.57 27.849c-.237 1.113-.535 2.278-1.298 3.157-.829.953-2.255.702-3.395.784-2.771.2-5.536.013-8.309.086-1.14.03-2.263.004-3.4-.052-1.131-.057-2.315.064-3.446-.027-.686-.056-1.376-.058-2.06-.142-.548-.067-1.377-.147-1.792-.562-.202-.2-.268-.514-.443-.749l-.252-.44c-1.086-2.316-1.065-4.866-1.069-7.397-.002-.94.111-1.875.086-2.816-.016-.607.26-1.182.297-1.793.039-.613.154-1.203.45-1.735.578-1.035.87-1.52 1.942-1.96.537-.22 1.538-.281 2.113-.27.684.012 1.37.009 2.054 0 1.39-.016 2.778-.057 4.168-.053 1.209.004 2.433.01 3.638.085 1.207.074 2.42-.041 3.63-.01.998.025 1.997.023 2.993.096.745.055 1.613.146 2.26.56.39.248.822.58.997.987.508 1.185.932 2.384 1.003 3.68.073 1.328.09 2.657.127 3.986l.02.688a16.265 16.265 0 0 1-.314 3.897Z" fill="#C12025"/></svg>