<svg width="46" height="46" fill="none" xmlns="http://www.w3.org/2000/svg"><g clip-path="url(#a)"><path d="M0 22.302v1.233c.322 11.836 9.85 21.338 21.195 22.232h3.486c11.406-.903 20.774-10.486 21.087-22.25v-1.215C45.455 10.332 35.765.624 24.082.025 11.514-.609.349 9.475 0 22.302Z" fill="url(#b)"/><path d="M22.993 11.496c3.647 0 4.076.01 5.524.08 1.332.054 2.047.287 2.53.474.634.25 1.09.555 1.564 1.037.474.483.778.948 1.028 1.591.188.492.402 1.225.474 2.584.071 1.466.08 1.904.08 5.614s-.009 4.147-.08 5.613c-.054 1.35-.277 2.092-.474 2.584a4.287 4.287 0 0 1-1.028 1.591c-.474.483-.93.787-1.564 1.037-.483.197-1.207.42-2.53.474-1.44.071-1.877.08-5.524.08-3.647 0-4.077-.009-5.525-.08-1.332-.054-2.047-.286-2.53-.474a4.207 4.207 0 0 1-1.564-1.037 4.4 4.4 0 0 1-1.028-1.591c-.188-.492-.402-1.225-.474-2.584-.071-1.466-.08-1.904-.08-5.613 0-3.71.009-4.148.08-5.614.054-1.35.277-2.092.474-2.584a4.287 4.287 0 0 1 1.028-1.59c.474-.483.93-.787 1.564-1.038.483-.196 1.207-.42 2.53-.473 1.44-.063 1.878-.08 5.525-.08Zm0-2.503c-3.71 0-4.175.018-5.623.09-1.448.071-2.45.303-3.317.643a6.541 6.541 0 0 0-2.413 1.61 6.813 6.813 0 0 0-1.573 2.466c-.34.876-.572 1.896-.635 3.37-.072 1.475-.08 1.95-.08 5.721 0 3.773.017 4.247.08 5.721.072 1.476.304 2.486.635 3.37a6.88 6.88 0 0 0 1.573 2.468 6.688 6.688 0 0 0 2.413 1.609c.868.349 1.869.58 3.317.644 1.457.071 1.922.089 5.623.089 3.7 0 4.174-.018 5.622-.09 1.449-.071 2.45-.303 3.317-.643a6.54 6.54 0 0 0 2.413-1.61 6.812 6.812 0 0 0 1.574-2.466c.34-.876.572-1.895.634-3.37.072-1.475.08-1.95.08-5.721 0-3.773-.017-4.247-.08-5.721-.071-1.475-.304-2.486-.634-3.37a6.887 6.887 0 0 0-1.574-2.468 6.688 6.688 0 0 0-2.413-1.609c-.867-.348-1.868-.58-3.317-.643-1.448-.072-1.921-.09-5.622-.09Z" fill="#fff"/><path d="M22.993 15.751c-3.88 0-7.009 3.191-7.009 7.133 0 3.943 3.138 7.134 7.009 7.134 3.87 0 7.008-3.191 7.008-7.134 0-3.942-3.138-7.133-7.008-7.133Zm0 11.764c-2.512 0-4.55-2.065-4.55-4.63 0-2.566 2.038-4.631 4.55-4.631s4.55 2.065 4.55 4.63c0 2.566-2.038 4.63-4.55 4.63Zm7.285-10.387c.904 0 1.636-.744 1.636-1.663 0-.918-.732-1.662-1.636-1.662-.903 0-1.635.744-1.635 1.662 0 .919.732 1.663 1.635 1.663Z" fill="#fff"/></g><defs><radialGradient id="b" cx="0" cy="0" r="1" gradientUnits="userSpaceOnUse" gradientTransform="matrix(3.463 -66.07802 56.16632 2.94355 .836 41.57)"><stop stop-color="#FED576"/><stop offset=".263" stop-color="#F47133"/><stop offset=".609" stop-color="#BC3081"/><stop offset="1" stop-color="#4C63D2"/></radialGradient><clipPath id="a"><path fill="#fff" d="M0 0h45.768v45.768H0z"/></clipPath></defs></svg>