<svg width="18" height="18" fill="none" xmlns="http://www.w3.org/2000/svg"><g clip-path="url(#a)"><path d="M0 8.77v.486c.127 4.655 3.874 8.392 8.336 8.743h1.37c4.487-.355 8.171-4.123 8.294-8.75v-.478C17.877 4.063 14.066.245 9.471.01 4.528-.24.137 3.726 0 8.77Z" fill="url(#b)"/><path d="M9.043 4.521c1.434 0 1.603.004 2.172.032.524.02.805.112.995.186.25.098.43.218.615.408.187.19.306.372.405.626.073.193.158.481.186 1.016.028.576.032.748.032 2.207 0 1.46-.004 1.632-.032 2.208-.021.531-.109.823-.186 1.016a1.686 1.686 0 0 1-.405.626c-.186.19-.365.31-.615.408-.19.077-.475.165-.995.186-.566.028-.738.032-2.172.032-1.435 0-1.604-.004-2.173-.032-.524-.021-.805-.112-.995-.186a1.655 1.655 0 0 1-.615-.408 1.73 1.73 0 0 1-.405-.626c-.073-.193-.158-.481-.186-1.016-.028-.576-.031-.749-.031-2.208s.003-1.63.031-2.207c.021-.531.11-.823.186-1.016.099-.254.215-.436.405-.626.186-.19.365-.31.615-.408.19-.077.475-.165.995-.186.566-.025.738-.032 2.173-.032Zm0-.984c-1.46 0-1.642.007-2.212.035-.57.028-.963.12-1.304.253-.355.14-.654.327-.95.633a2.68 2.68 0 0 0-.618.97c-.134.345-.225.745-.25 1.325-.028.58-.031.767-.031 2.25 0 1.484.007 1.67.031 2.25.028.58.12.978.25 1.326.137.358.32.664.619.97.299.306.597.492.949.633.341.137.735.229 1.304.253.573.028.756.035 2.212.035 1.455 0 1.641-.007 2.21-.035.57-.028.964-.12 1.305-.253.355-.14.654-.327.95-.633.298-.306.481-.608.618-.97.134-.345.225-.745.25-1.326.028-.58.031-.766.031-2.25 0-1.483-.007-1.67-.031-2.25-.028-.58-.12-.977-.25-1.325a2.708 2.708 0 0 0-.619-.97 2.63 2.63 0 0 0-.949-.633c-.34-.137-.735-.229-1.304-.253-.57-.028-.756-.035-2.211-.035Z" fill="#fff"/><path d="M9.043 6.194C7.518 6.194 6.287 7.45 6.287 9s1.234 2.805 2.756 2.805c1.523 0 2.757-1.255 2.757-2.805 0-1.55-1.234-2.806-2.757-2.806Zm0 4.627c-.988 0-1.79-.812-1.79-1.821 0-1.01.802-1.821 1.79-1.821s1.79.812 1.79 1.82c0 1.01-.802 1.822-1.79 1.822Zm2.864-4.085a.649.649 0 0 0 .643-.654.649.649 0 0 0-.643-.654.649.649 0 0 0-.643.654c0 .361.288.654.643.654Z" fill="#fff"/></g><defs><radialGradient id="b" cx="0" cy="0" r="1" gradientUnits="userSpaceOnUse" gradientTransform="rotate(-87 8.779 8.001) scale(26.0232 22.1197)"><stop stop-color="#FED576"/><stop offset=".263" stop-color="#F47133"/><stop offset=".609" stop-color="#BC3081"/><stop offset="1" stop-color="#4C63D2"/></radialGradient><clipPath id="a"><path fill="#fff" d="M0 0h18v18H0z"/></clipPath></defs></svg>