<svg width="31" height="31" fill="none" xmlns="http://www.w3.org/2000/svg"><g clip-path="url(#a)" fill="#000"><path d="M13.956.054a.936.936 0 0 0-.242.188c-.116.127-.122.236-.14 1.69-.042 3.19.255 6.847.836 10.232l.181 1.06.31.454a20.478 20.478 0 0 0 1.75 2.149c1.53 1.617 3.02 2.603 4.916 3.263.084.03.078.073-.061.418-.133.321-.157.472-.163.969 0 .43-.019.593-.073.593-.188 0-1.441-.466-2.047-.757-.763-.369-1.755-1.005-2.349-1.507-.448-.388-.642-.466-.932-.388-.406.11-.412.115-.49 2.416-.11 3.07-.34 5.486-.77 8.09-.115.69-.212 1.361-.212 1.489 0 .635.909.823 1.2.248.139-.26.544-2.967.762-5.062.164-1.526.267-2.876.327-4.329l.042-.914.455.296c.248.17.702.436 1.005.606.526.285.563.315.684.617.236.588.375 1.272.43 2.132.072 1.21.29 1.762.962 2.476.454.472.794.666 1.066.618.29-.055.515-.34.515-.654 0-.23-.037-.279-.424-.642-.297-.272-.485-.509-.612-.775-.181-.363-.193-.448-.242-1.308-.024-.527-.085-1.06-.14-1.229-.048-.163-.084-.309-.066-.32.012-.013.073.005.14.042.314.163 1.168.314 2.01.345.805.036.908.024 1.223-.091.478-.182.908-.587 1.15-1.084.176-.351.2-.478.218-.957.03-.666-.073-1.083-.37-1.513-.38-.563-.732-.72-1.949-.872-1.041-.127-2.313-.654-3.324-1.368l-.472-.34.333-.169c.514-.26.884-.533 1.344-1.005.254-.26.497-.448.606-.472.102-.025.508-.164.908-.31.956-.344 1.18-.374 1.846-.235.624.12.77.09.975-.23.164-.267.115-.57-.121-.787-.387-.346-1.72-.455-2.446-.2-.157.06-.303.09-.315.078-.018-.018.164-.363.4-.78 1.023-1.775 1.822-2.737 2.634-3.143.326-.17.442-.26.526-.436a.58.58 0 0 0-.224-.781c-.272-.17-.448-.145-1.005.133-.932.466-1.859 1.538-2.942 3.415-.291.496-.733 1.26-.987 1.69-.703 1.192-1.326 1.761-2.289 2.1l-.351.121-.412-.436c-.484-.514-.98-1.12-1.417-1.72l-.309-.423-.217-1.302c-.358-2.13-.642-4.88-.642-6.2v-.478l.127.109c.066.067.351.424.636.793.696.92 1.229 1.41 1.937 1.762.485.242.618.279.957.285.333.006.412-.019.545-.14a.637.637 0 0 0 .127-.769c-.115-.218-.151-.236-.624-.363-.714-.188-1.241-.617-1.962-1.592-.478-.642-1.047-1.223-1.531-1.556l-.333-.224V1.78c0-.872-.024-1.344-.073-1.447-.121-.272-.496-.4-.805-.279Zm9.657 19.484c.387.352.357 1.127-.06 1.544-.273.273-.467.297-.685.08-.37-.376-.327-1.151.079-1.563.272-.266.418-.279.666-.06ZM9.972.182c-.29.23-.297.326-.218 3.281.036 1.508.067 2.773.073 2.816.006.15-.757 1.114-1.411 1.78-.757.756-1.247 1.144-2.083 1.64-.878.521-1.126.903-1.126 1.702 0 1.241.95 2.337 1.907 2.198.563-.085 1.998-.854 2.846-1.514l.424-.333.042.224c.273 1.483.46 2.38.66 3.179.388 1.55.484 2.228.52 3.596l.037 1.223-.175.073c-.824.327-1.338.636-1.75 1.047-.684.685-1 1.447-.793 1.932.09.23.278.345.55.345.31 0 .449-.127.69-.636.128-.272.322-.593.425-.708.17-.194.817-.594.962-.594.067 0 .055.406-.084 2.15-.134 1.64-.285 2.834-.636 4.874-.412 2.404-.388 2.561.363 2.53.37-.017.4-.03.503-.205.181-.309.823-4.468 1.041-6.715.29-2.985.279-5.061-.03-7.205a62.367 62.367 0 0 0-.509-2.706 73.939 73.939 0 0 1-.732-3.906c-.043-.272-.333-.502-.636-.502-.212 0-.29.048-.763.49-.6.551-1.526 1.266-1.635 1.266-.042 0-.079-.06-.079-.14 0-.169-.308-.835-.442-.944-.06-.042-.102-.097-.102-.121 0-.024.23-.212.508-.418.981-.726 2.337-2.3 2.713-3.136.109-.248.115-.351.078-.805-.024-.285-.06-1.647-.084-3.022L10.989.412l-.2-.176C10.547.018 10.21 0 9.973.182ZM6.97 11.34c.206.466.121 1.054-.133.866-.297-.212-.454-.83-.297-1.132.09-.17.285-.049.43.266Z"/></g><defs><clipPath id="a"><path fill="#fff" d="M0 0h31v31H0z"/></clipPath></defs></svg>