<svg width="21" height="20" fill="none" xmlns="http://www.w3.org/2000/svg"><path d="M3.24.11c-.466.158-.748.378-1.505 1.145C.863 2.14.532 2.64.245 3.473c-.322.944-.326 2.008-.015 3.44.35 1.6 1.37 3.724 2.616 5.434 2.78 3.814 6.79 6.69 10.489 7.523.522.12.661.13 1.581.13.906.004 1.05-.01 1.413-.106a5.815 5.815 0 0 0 1.471-.661c.37-.24 1.649-1.5 1.888-1.86.49-.733.508-1.753.039-2.496-.182-.287-2.353-2.492-2.741-2.784a2.65 2.65 0 0 0-.551-.306c-.35-.135-.963-.178-1.308-.096-.542.13-.748.268-1.514 1.02l-.724.714-.45-.302a20.403 20.403 0 0 1-5.496-5.495l-.302-.45.714-.724c.752-.767.891-.973 1.02-1.515.082-.345.039-.958-.095-1.308-.163-.43-.427-.742-1.73-2.026C5.285.359 5.089.2 4.571.067 4.188-.04 3.618-.015 3.24.11Zm1.024 1.466c.149.057 2.487 2.415 2.564 2.582a.841.841 0 0 1-.014.647c-.044.087-.46.542-.93 1.016-.47.474-.877.91-.906.968-.09.177-.062.465.072.714.187.355.892 1.409 1.299 1.945a19.484 19.484 0 0 0 1.782 2.07c1.323 1.347 2.454 2.271 3.93 3.201 1.044.661 1.015.666 2.232-.537 1.385-1.365 1.246-1.375 2.913.278.657.652 1.222 1.241 1.26 1.313.082.153.087.455.015.642-.024.077-.278.37-.56.657-.743.757-1.194 1.054-1.927 1.284-.297.095-.465.115-.958.11-1.222 0-2.588-.379-4.073-1.121C6.751 15.232 2.861 10.77 1.816 6.85c-.398-1.485-.378-2.395.072-3.344.192-.417.259-.503.886-1.136.374-.378.743-.718.83-.762.167-.081.488-.1.66-.033Z" fill="#299B8E"/></svg>