<svg width="61" height="61" fill="none" xmlns="http://www.w3.org/2000/svg"><g clip-path="url(#a)" fill="#31BBAC"><path d="M1.001 30.486h.036c.548 0 .998-.434 1.016-.982.55-15.711 13.733-28.002 29.445-27.452A28.466 28.466 0 0 1 48.11 8.135H42.7a1.017 1.017 0 0 0 0 2.033h8.148c.08-.007.158-.022.234-.047a1.09 1.09 0 0 0 .154-.034c.028-.012.05-.037.077-.052a.973.973 0 0 0 .248-.174l.01-.007a.981.981 0 0 0 .07-.111.983.983 0 0 0 .133-.213.97.97 0 0 0 .051-.25.856.856 0 0 0 .026-.129V1.018a1.017 1.017 0 0 0-2.034 0v5.888C36.791-3.766 17.58-1.858 6.907 11.168A30.492 30.492 0 0 0 .02 29.436c-.019.561.42 1.031.981 1.05ZM9.232 49.42a1.019 1.019 0 1 0-1.525 1.35c.7.786 1.44 1.535 2.216 2.245a1.017 1.017 0 0 0 1.371-1.5 28.69 28.69 0 0 1-2.062-2.096Zm12.132 8.049a28.32 28.32 0 0 1-2.734-1.087 1.017 1.017 0 1 0-.85 1.846c.956.44 1.935.83 2.932 1.167a1.017 1.017 0 1 0 .652-1.926Zm-5.34-2.453a29.21 29.21 0 0 1-2.454-1.627 1.016 1.016 0 1 0-1.209 1.633 30.804 30.804 0 0 0 2.626 1.744 1.017 1.017 0 0 0 1.037-1.75ZM7.39 47.125a28.863 28.863 0 0 1-1.593-2.474 1.018 1.018 0 0 0-1.764 1.017 30.75 30.75 0 0 0 1.708 2.644 1.017 1.017 0 0 0 1.65-1.187Zm-2.835-4.678c0-.141-.03-.281-.087-.41l-.002-.008a28.385 28.385 0 0 1-1.052-2.745 1.017 1.017 0 1 0-1.932.627c.325 1.002.7 1.986 1.127 2.949a1.017 1.017 0 0 0 1.946-.413Zm-2.684-4.803c.55-.117.9-.657.783-1.205-.202-.96-.356-1.93-.46-2.907a1.017 1.017 0 0 0-2.022.215 30.63 30.63 0 0 0 .494 3.113c.116.549.656.9 1.205.784Zm57.503-1.039a1.016 1.016 0 0 0-1.232.742 28.46 28.46 0 0 1-.853 2.817 1.017 1.017 0 1 0 1.913.69c.357-.99.662-1.997.915-3.018a1.017 1.017 0 0 0-.743-1.23ZM27.098 58.764a28.483 28.483 0 0 1-2.9-.498 1.017 1.017 0 1 0-.448 1.983 30.55 30.55 0 0 0 3.108.534 1.017 1.017 0 0 0 .24-2.02ZM57.5 42.405a1.017 1.017 0 0 0-1.357.473 28.31 28.31 0 0 1-1.418 2.579 1.016 1.016 0 0 0 1.729 1.07 30.453 30.453 0 0 0 1.518-2.764 1.017 1.017 0 0 0-.472-1.358Zm-3.004 5.287a1.017 1.017 0 0 0-1.446.186v-.002c-.6.778-1.24 1.524-1.916 2.236a1.017 1.017 0 0 0 1.474 1.402 31.106 31.106 0 0 0 2.051-2.394c.35-.44.277-1.079-.163-1.428ZM60 30.548a1.001 1.001 0 0 0-1.052.98c-.034.981-.12 1.96-.255 2.932a1.017 1.017 0 0 0 2.014.28c.145-1.042.236-2.09.274-3.14a1.017 1.017 0 0 0-.98-1.052ZM49.002 52.135v.003a28.754 28.754 0 0 1-2.338 1.797 1.02 1.02 0 0 0 1.16 1.677 31.17 31.17 0 0 0 2.5-1.932 1.017 1.017 0 1 0-1.322-1.545Zm-10.256 5.62c-.94.283-1.893.517-2.857.702a1.016 1.016 0 0 0 .383 1.998 30.106 30.106 0 0 0 3.062-.754 1.017 1.017 0 0 0-.588-1.946Zm-5.717 1.101a1.04 1.04 0 0 0-.056.005l.005.004c-.813.07-1.646.102-2.475.102h-.465a1.052 1.052 0 0 0-1.036.998c-.01.561.437 1.025.998 1.035h.503c.888 0 1.779-.04 2.643-.114a1.017 1.017 0 1 0-.117-2.03Zm11.133-3.377h.001a28.7 28.7 0 0 1-2.65 1.279 1.017 1.017 0 1 0 .788 1.874 30.478 30.478 0 0 0 2.838-1.37 1.017 1.017 0 0 0-.977-1.783Z"/><path d="M30.502 9.151c-11.791 0-21.35 9.559-21.35 21.35 0 11.79 9.559 21.35 21.35 21.35 11.79 0 21.35-9.56 21.35-21.35-.014-11.786-9.565-21.336-21.35-21.35Zm16.266 22.366h2.998c-.528 9.851-8.397 17.72-18.247 18.248v-2.998a1.017 1.017 0 1 0-2.034 0v2.998c-9.85-.528-17.72-8.397-18.247-18.248h2.998a1.017 1.017 0 0 0 0-2.033h-2.998c.528-9.85 8.396-17.72 18.247-18.248v2.999a1.017 1.017 0 0 0 2.034 0v-2.998c9.85.528 17.72 8.396 18.247 18.247h-2.998a1.017 1.017 0 0 0 0 2.033Z"/><path d="M31.518 27.638V18.3a1.017 1.017 0 0 0-2.033 0v9.337a3.05 3.05 0 0 0-1.846 1.846h-5.27a1.017 1.017 0 0 0 0 2.033h5.27a3.043 3.043 0 1 0 3.879-3.88Zm-1.017 3.88a1.017 1.017 0 1 1 0-2.034 1.017 1.017 0 0 1 0 2.033Z"/></g><defs><clipPath id="a"><path fill="#fff" d="M0 0h61v61H0z"/></clipPath></defs></svg>