<svg width="60" height="60" viewBox="0 0 60 60" fill="none" xmlns="http://www.w3.org/2000/svg">
<g filter="url(#filter0_d_499_7492)">
<path fill-rule="evenodd" clip-rule="evenodd" d="M5 26.2195C5 29.9365 5.22885 31.9986 6.42609 35.4361C7.00906 37.1055 7.53902 38.0619 8.35325 39.565C8.54114 39.9119 8.717 40.1456 8.90971 40.4708C9.71189 41.815 11.2295 43.6313 12.2991 44.7009C13.3133 45.7127 14.378 46.5847 15.5463 47.411C17.0134 48.4444 17.7216 48.8539 19.3549 49.6585C21.6675 50.7955 25.6808 52 29.1207 52H29.2532C32.0091 52 33.3292 51.9735 36.1139 51.2773C36.9546 51.0677 37.6508 50.8461 38.4361 50.5715C41.64 49.4562 43.6057 48.0734 46.1134 46.1415C51.1216 42.2799 55 34.4509 55 27.8793C55 23.3697 54.4676 20.1225 52.6898 16.4199C49.9846 10.7878 46.164 7.13105 40.6451 4.3439C38.0049 3.00935 33.8736 2 30.8793 2C27.1141 2 25.0617 2.20958 21.5639 3.42609C20.8677 3.6694 20.0511 3.9922 19.4199 4.31018L16.5268 5.90971C12.4268 8.35961 9.43727 12.1995 7.31018 16.4199C5.9708 19.0746 5 23.2131 5 26.2195Z" fill="#31BBAC"/>
</g>
<path fill-rule="evenodd" clip-rule="evenodd" d="M20.1961 43.1448C21.1139 42.8437 24.3924 40.7696 25.3247 40.3841C25.6523 40.2492 27.9095 40.7623 28.5985 40.8202C34.3992 41.3188 39.364 38.8593 42.4956 35.1037C44.7914 32.3503 46.4584 27.6071 45.1768 22.9603C44.0133 18.7422 41.2815 15.8707 38.2101 14.1026C30.8918 9.88452 21.0151 11.8912 16.3394 19.395C14.1809 22.8615 13.6678 27.9106 15.5709 31.9552C16.3418 33.5957 17.5414 35.4121 18.8567 36.5804C20.3623 37.915 20.1961 37.1923 20.1961 39.1098C20.1961 40.454 20.1961 41.8006 20.1961 43.1448Z" fill="white"/>
<path fill-rule="evenodd" clip-rule="evenodd" d="M20.0723 31.2226C20.701 31.0226 23.0329 29.6423 23.835 29.2304C25.0515 28.6065 26.3933 27.6983 27.5568 27.2189C28.2988 27.8501 31.0715 31.0154 31.5629 31.3695L35.7448 26.9829C36.8843 25.6989 38.9246 23.7163 39.8954 22.5191L32.4542 26.5878C32.0038 26.3156 30.8378 24.9352 30.4428 24.504L28.3398 22.4131L25.2467 25.6652C25.0612 25.8699 24.9335 26.041 24.7384 26.2337L20.0723 31.2226Z" fill="#31BBAC"/>
<defs>
<filter id="filter0_d_499_7492" x="0" y="0" width="60" height="60" filterUnits="userSpaceOnUse" color-interpolation-filters="sRGB">
<feFlood flood-opacity="0" result="BackgroundImageFix"/>
<feColorMatrix in="SourceAlpha" type="matrix" values="0 0 0 0 0 0 0 0 0 0 0 0 0 0 0 0 0 0 127 0" result="hardAlpha"/>
<feOffset dy="3"/>
<feGaussianBlur stdDeviation="2.5"/>
<feColorMatrix type="matrix" values="0 0 0 0 0 0 0 0 0 0 0 0 0 0 0 0 0 0 0.2 0"/>
<feBlend mode="normal" in2="BackgroundImageFix" result="effect1_dropShadow_499_7492"/>
<feBlend mode="normal" in="SourceGraphic" in2="effect1_dropShadow_499_7492" result="shape"/>
</filter>
</defs>
</svg>
