<svg width="18" height="18" viewBox="0 0 18 18" fill="none" xmlns="http://www.w3.org/2000/svg">
<g clip-path="url(#clip0_499_6955)">
<path d="M0 8.77064V9.2558C0.126562 13.9105 3.87422 17.6476 8.33555 17.9992H9.70664C14.1926 17.6441 17.877 13.8753 18 9.24876V8.77064C17.877 4.06322 14.066 0.24525 9.47109 0.00970358C4.52812 -0.239906 0.137109 3.72572 0 8.77064Z" fill="url(#paint0_radial_499_6955)"/>
<path d="M9.04258 4.521C10.477 4.521 10.6457 4.52451 11.2152 4.55264C11.7391 4.57373 12.0203 4.66514 12.2102 4.73897C12.4598 4.8374 12.6391 4.95693 12.8254 5.14678C13.0117 5.33662 13.1313 5.51943 13.2297 5.77256C13.3035 5.96592 13.3879 6.2542 13.416 6.78858C13.4441 7.36514 13.4477 7.5374 13.4477 8.99639C13.4477 10.4554 13.4441 10.6276 13.416 11.2042C13.3949 11.7351 13.307 12.0269 13.2297 12.2202C13.1313 12.4733 13.0152 12.6562 12.8254 12.846C12.6391 13.0358 12.4598 13.1554 12.2102 13.2538C12.0203 13.3312 11.7355 13.419 11.2152 13.4401C10.6492 13.4683 10.477 13.4718 9.04258 13.4718C7.6082 13.4718 7.43945 13.4683 6.86992 13.4401C6.34609 13.419 6.06484 13.3276 5.875 13.2538C5.62539 13.1554 5.44609 13.0358 5.25977 12.846C5.07344 12.6562 4.95391 12.4733 4.85547 12.2202C4.78164 12.0269 4.69727 11.7386 4.66914 11.2042C4.64102 10.6276 4.6375 10.4554 4.6375 8.99639C4.6375 7.5374 4.64102 7.36514 4.66914 6.78858C4.69023 6.25772 4.77813 5.96592 4.85547 5.77256C4.95391 5.51943 5.06992 5.33662 5.25977 5.14678C5.44609 4.95693 5.62539 4.8374 5.875 4.73897C6.06484 4.66162 6.34961 4.57373 6.86992 4.55264C7.43594 4.52803 7.6082 4.521 9.04258 4.521ZM9.04258 3.53662C7.58359 3.53662 7.40078 3.54365 6.83125 3.57178C6.26172 3.5999 5.86797 3.69131 5.52695 3.8249C5.17188 3.96553 4.87305 4.15186 4.57773 4.45772C4.27891 4.76357 4.09609 5.06592 3.95898 5.42803C3.82539 5.77256 3.73398 6.17334 3.70938 6.75342C3.68125 7.3335 3.67773 7.51983 3.67773 9.00342C3.67773 10.487 3.68477 10.6733 3.70938 11.2534C3.7375 11.8335 3.82891 12.2308 3.95898 12.5788C4.09609 12.9374 4.27891 13.2433 4.57773 13.5491C4.87656 13.855 5.17539 14.0413 5.52695 14.1819C5.86797 14.319 6.26172 14.4105 6.83125 14.4351C7.4043 14.4632 7.58711 14.4702 9.04258 14.4702C10.498 14.4702 10.6844 14.4632 11.2539 14.4351C11.8234 14.4069 12.2172 14.3155 12.5582 14.1819C12.9133 14.0413 13.2121 13.855 13.5074 13.5491C13.8063 13.2433 13.9891 12.9409 14.1262 12.5788C14.2598 12.2343 14.3512 11.8335 14.3758 11.2534C14.4039 10.6733 14.4074 10.487 14.4074 9.00342C14.4074 7.51983 14.4004 7.3335 14.3758 6.75342C14.3477 6.17334 14.2563 5.77607 14.1262 5.42803C13.9891 5.06943 13.8063 4.76357 13.5074 4.45772C13.2086 4.15186 12.9098 3.96553 12.5582 3.8249C12.2172 3.68779 11.8234 3.59639 11.2539 3.57178C10.6844 3.54365 10.498 3.53662 9.04258 3.53662Z" fill="white"/>
<path d="M9.04336 6.19434C7.51758 6.19434 6.28711 7.44942 6.28711 8.99981C6.28711 10.5502 7.5211 11.8053 9.04336 11.8053C10.5656 11.8053 11.7996 10.5502 11.7996 8.99981C11.7996 7.44942 10.5656 6.19434 9.04336 6.19434ZM9.04336 10.8209C8.05547 10.8209 7.25391 10.0088 7.25391 8.99981C7.25391 7.99082 8.05547 7.17871 9.04336 7.17871C10.0313 7.17871 10.8328 7.99082 10.8328 8.99981C10.8328 10.0088 10.0313 10.8209 9.04336 10.8209Z" fill="white"/>
<path d="M11.907 6.73604C12.2624 6.73604 12.5504 6.44327 12.5504 6.08213C12.5504 5.72099 12.2624 5.42822 11.907 5.42822C11.5517 5.42822 11.2637 5.72099 11.2637 6.08213C11.2637 6.44327 11.5517 6.73604 11.907 6.73604Z" fill="white"/>
</g>
<defs>
<radialGradient id="paint0_radial_499_6955" cx="0" cy="0" r="1" gradientUnits="userSpaceOnUse" gradientTransform="translate(0.328916 16.3487) rotate(-86.9998) scale(26.0232 22.1197)">
<stop stop-color="#FED576"/>
<stop offset="0.2634" stop-color="#F47133"/>
<stop offset="0.6091" stop-color="#BC3081"/>
<stop offset="1" stop-color="#4C63D2"/>
</radialGradient>
<clipPath id="clip0_499_6955">
<rect width="18" height="18" fill="white"/>
</clipPath>
</defs>
</svg>
