<svg width="24" height="25" viewBox="0 0 24 25" fill="none" xmlns="http://www.w3.org/2000/svg">
<circle cx="12" cy="12.9268" r="12" fill="white"/>
<path d="M16.656 15.2789C15.8782 14.6589 15.0888 14.2833 14.3205 14.9024L13.8618 15.2766C13.5261 15.5482 12.9021 16.8173 10.4892 14.2304C8.07688 11.6468 9.51242 11.2445 9.84857 10.9753L10.3098 10.6006C11.0741 9.98014 10.7857 9.19901 10.2345 8.39494L9.90183 7.90791C9.34812 7.10572 8.74516 6.57888 7.9789 7.19844L7.56486 7.53561C7.2262 7.76555 6.27956 8.51295 6.04993 9.93284C5.77357 11.6365 6.64535 13.5874 8.64265 15.728C10.6374 17.8696 12.5905 18.9453 14.4406 18.9265C15.9782 18.9111 16.9067 18.1421 17.1971 17.8625L17.6127 17.5249C18.3769 16.9058 17.9021 16.2755 17.1238 15.654L16.656 15.2789Z" fill="#F58A07"/>
</svg>
