<svg width="18" height="18" viewBox="0 0 18 18" fill="none" xmlns="http://www.w3.org/2000/svg">
<path d="M9.1699 7.9365C9.00904 7.84388 8.84585 7.7581 8.69377 7.65106C8.54812 7.54869 8.42159 7.44633 8.27497 7.34651C8.19678 7.29328 8.02501 7.24102 8.02501 7.18994C8.02501 7.2652 8.02501 7.56702 8.02501 7.60875C8.02501 7.85032 8.00668 9.09308 8.00941 9.24887C8.01331 9.50955 7.99303 9.77023 8.00259 10.0309C8.01156 10.2795 8.01312 10.517 8.00454 10.7767C8.00454 10.7767 8.62553 10.4751 8.70839 10.423C9.02698 10.2224 9.33913 10.0046 9.66552 9.81819C9.82598 9.72655 9.99191 9.64544 10.1452 9.54191C10.2844 9.44735 10.8239 8.99365 10.8426 9.00515C10.5934 8.85287 10.3518 8.69358 10.0921 8.55885C9.75989 8.3865 9.49355 8.1227 9.1699 7.9365Z" fill="#C12025"/>
<path d="M9 0C4.02933 0 0 4.02933 0 9C0 13.9707 4.02933 18 9 18C13.9707 18 18 13.9707 18 9C18 4.02933 13.9707 0 9 0ZM13.9434 10.9525C13.8504 11.3904 13.7332 11.8484 13.4329 12.1943C13.1071 12.569 12.546 12.4703 12.0977 12.5027C11.008 12.5815 9.92067 12.5078 8.83018 12.5364C8.38193 12.5483 7.93993 12.538 7.49285 12.5158C7.04792 12.4935 6.58252 12.5411 6.13778 12.5052C5.86794 12.4832 5.59634 12.4826 5.32747 12.4495C5.11183 12.423 4.78583 12.3916 4.62264 12.2286C4.54328 12.1494 4.51735 12.0264 4.44853 11.934L4.34928 11.7608C3.9221 10.8499 3.93068 9.84697 3.92892 8.85182C3.92795 8.48215 3.97279 8.11443 3.96285 7.74437C3.95641 7.50552 4.06482 7.27935 4.07964 7.03895C4.09484 6.79796 4.14027 6.56575 4.25687 6.35654C4.48382 5.94963 4.59866 5.75856 5.02039 5.58601C5.23154 5.49944 5.625 5.47526 5.85117 5.47955C6.12043 5.48423 6.39027 5.48306 6.65914 5.47994C7.20585 5.47331 7.75178 5.45713 8.29829 5.45888C8.77363 5.46025 9.25503 5.46259 9.7292 5.49222C10.204 5.52147 10.6807 5.47604 11.1568 5.48813C11.5491 5.49807 11.9422 5.49729 12.3337 5.52615C12.6267 5.54779 12.9683 5.58347 13.2229 5.74627C13.3758 5.84396 13.5458 5.97439 13.6146 6.13466C13.8147 6.60045 13.9812 7.0721 14.0093 7.58176C14.0381 8.1039 14.0448 8.62682 14.059 9.14935C14.0615 9.23943 14.0643 9.3297 14.0672 9.41978C14.0845 9.93198 14.0492 10.4508 13.9434 10.9525Z" fill="#C12025"/>
</svg>
