<svg width="21" height="20" viewBox="0 0 21 20" fill="none" xmlns="http://www.w3.org/2000/svg">
<path d="M3.23912 0.109634C2.77434 0.267754 2.49164 0.488163 1.73458 1.2548C0.862526 2.14123 0.531912 2.63955 0.244422 3.47327C-0.0766097 4.4172 -0.0814012 5.48092 0.230047 6.91358C0.579827 8.51394 1.60042 10.6366 2.84621 12.3472C5.62529 16.1612 9.63578 19.0361 13.3348 19.8698C13.8571 19.9896 13.9961 19.9992 14.916 19.9992C15.8216 20.004 15.9654 19.9896 16.3295 19.8938C16.7991 19.7644 17.398 19.4961 17.8005 19.2326C18.1695 18.993 19.4488 17.7328 19.6884 17.3734C20.1771 16.6403 20.1963 15.6198 19.7267 14.8771C19.5446 14.5896 17.3741 12.3855 16.986 12.0932C16.8326 11.983 16.5883 11.8393 16.4349 11.7865C16.0852 11.6524 15.4718 11.6093 15.1269 11.6907C14.5854 11.8201 14.3794 11.959 13.6127 12.7113L12.8892 13.4252L12.4388 13.1234C10.3018 11.6907 8.37562 9.76453 6.94295 7.62751L6.64109 7.17711L7.35502 6.45359C8.10729 5.68695 8.24625 5.48092 8.37562 4.93948C8.45707 4.59449 8.41395 3.98117 8.27979 3.63139C8.11687 3.20016 7.85334 2.88871 6.55005 1.60459C5.28509 0.358791 5.08864 0.200674 4.57116 0.0665112C4.18784 -0.0389023 3.61765 -0.0149441 3.23912 0.109634ZM4.2645 1.57584C4.41304 1.63333 6.75129 3.99076 6.82796 4.15846C6.90941 4.34054 6.90462 4.62803 6.81358 4.80531C6.77046 4.89156 6.3536 5.34676 5.88403 5.82111C5.41446 6.29547 5.00718 6.7315 4.97843 6.789C4.8874 6.96629 4.91614 7.25378 5.05031 7.50294C5.23718 7.85751 5.94153 8.91164 6.34881 9.44829C6.95733 10.2533 7.40773 10.7755 8.13125 11.5182C9.45371 12.8646 10.5845 13.7894 12.0603 14.719C13.1048 15.3802 13.0761 15.385 14.2931 14.1823C15.6779 12.8167 15.5389 12.8071 17.2064 14.4602C17.8628 15.1119 18.4282 15.7012 18.4665 15.7731C18.548 15.9264 18.5528 16.2283 18.4809 16.4151C18.457 16.4918 18.203 16.7841 17.9203 17.0716C17.1776 17.8286 16.7272 18.1257 15.9941 18.3557C15.697 18.4515 15.5293 18.4707 15.0358 18.4659C13.814 18.4659 12.4484 18.0874 10.963 17.3447C6.75129 15.2316 2.86059 10.7707 1.81604 6.85129C1.41834 5.36592 1.43751 4.45553 1.88791 3.50681C2.07957 3.08995 2.14665 3.00371 2.77434 2.37123C3.14808 1.9927 3.51702 1.6525 3.60327 1.60938C3.77097 1.52792 4.092 1.50875 4.2645 1.57584Z" fill="#299B8E"/>
</svg>
