<svg width="60" height="60" viewBox="0 0 60 60" fill="none" xmlns="http://www.w3.org/2000/svg">
<g filter="url(#filter0_d_499_7502)">
<circle cx="30" cy="27" r="25" fill="#0F59AF"/>
</g>
<path d="M31.1065 12.0472C30.5313 12.3136 30.3557 13.0765 30.7553 13.5487C30.9733 13.8091 31.2397 13.906 31.7059 13.906C32.7897 13.906 34.3155 14.1724 35.5082 14.572C39.6194 15.9403 42.7557 19.3915 43.7487 23.6237C43.9485 24.4653 44.0332 25.095 44.0877 26.1425C44.124 26.9114 44.1422 26.9841 44.2936 27.1839C44.7295 27.753 45.5893 27.6743 45.9162 27.0325C46.0434 26.7903 46.0494 26.7177 46.0131 25.8943C45.6862 18.3319 39.6375 12.2773 32.1176 11.9927C31.4819 11.9685 31.2457 11.9806 31.1065 12.0472Z" fill="white"/>
<path d="M21.013 15.8621C20.4257 16.0619 20.0684 16.3404 19.1118 17.3091C18.0098 18.4293 17.5921 19.0589 17.2288 20.1125C16.8231 21.3052 16.8171 22.6494 17.2106 24.4597C17.6526 26.482 18.9423 29.1642 20.5165 31.3257C24.0282 36.1453 29.096 39.7781 33.7702 40.8316C34.4301 40.983 34.6057 40.9951 35.7682 40.9951C36.9126 41.0011 37.0942 40.983 37.5544 40.8619C38.1477 40.6984 38.9046 40.3593 39.4132 40.0263C39.8794 39.7236 41.496 38.1312 41.7987 37.6771C42.4163 36.7507 42.4405 35.4611 41.8471 34.5226C41.6171 34.1593 38.8743 31.3742 38.3839 31.0048C38.1901 30.8656 37.8813 30.6839 37.6876 30.6173C37.2456 30.4478 36.4706 30.3933 36.0346 30.4963C35.3505 30.6597 35.0901 30.8353 34.1214 31.7859L33.2071 32.688L32.638 32.3066C29.9376 30.4963 27.5036 28.0623 25.6932 25.3619L25.3118 24.7927L26.2139 23.8785C27.1645 22.9097 27.3401 22.6494 27.5036 21.9652C27.6065 21.5293 27.552 20.7543 27.3825 20.3123C27.1766 19.7673 26.8436 19.3738 25.1967 17.7511C23.5983 16.1769 23.3501 15.9771 22.6962 15.8076C22.2118 15.6744 21.4913 15.7047 21.013 15.8621ZM22.3087 17.7148C22.4964 17.7875 25.451 20.7664 25.5479 20.9783C25.6509 21.2084 25.6448 21.5716 25.5298 21.7957C25.4753 21.9046 24.9485 22.4798 24.3551 23.0793C23.7618 23.6787 23.2471 24.2296 23.2108 24.3023C23.0958 24.5263 23.1321 24.8896 23.3016 25.2045C23.5378 25.6525 24.4278 26.9845 24.9425 27.6627C25.7114 28.6798 26.2805 29.3398 27.1948 30.2783C28.8659 31.9796 30.2948 33.1482 32.1596 34.3228C33.4796 35.1584 33.4432 35.1644 34.9811 33.6447C36.7309 31.9191 36.5553 31.907 38.6624 33.9959C39.4919 34.8193 40.2063 35.564 40.2548 35.6548C40.3577 35.8486 40.3637 36.23 40.2729 36.4662C40.2426 36.563 39.9218 36.9324 39.5645 37.2957C38.626 38.2523 38.0569 38.6277 37.1305 38.9183C36.7551 39.0394 36.5432 39.0636 35.9196 39.0576C34.3757 39.0576 32.6501 38.5793 30.7731 37.6408C25.451 34.9707 20.5346 29.3338 19.2147 24.381C18.7122 22.5041 18.7364 21.3537 19.3055 20.1548C19.5477 19.6281 19.6325 19.5191 20.4257 18.7199C20.8979 18.2416 21.3641 17.8117 21.4731 17.7572C21.685 17.6543 22.0907 17.63 22.3087 17.7148Z" fill="white"/>
<path d="M31.7731 18.1632C31.2463 18.4114 31.0283 19.0956 31.3371 19.5376C31.5733 19.8887 31.7367 19.9735 32.3543 20.028C33.9528 20.1794 35.0608 20.6516 36.084 21.6204C37.2405 22.7102 37.8399 23.9999 37.967 25.671C38.0276 26.4096 38.1426 26.6276 38.5725 26.8153C39.0448 27.0272 39.5655 26.8274 39.8016 26.343C39.9227 26.0887 39.9287 26.01 39.8924 25.4227C39.6321 21.4387 36.5321 18.3327 32.5905 18.1147C32.1121 18.0905 31.9123 18.1026 31.7731 18.1632Z" fill="white"/>
<defs>
<filter id="filter0_d_499_7502" x="0" y="0" width="60" height="60" filterUnits="userSpaceOnUse" color-interpolation-filters="sRGB">
<feFlood flood-opacity="0" result="BackgroundImageFix"/>
<feColorMatrix in="SourceAlpha" type="matrix" values="0 0 0 0 0 0 0 0 0 0 0 0 0 0 0 0 0 0 127 0" result="hardAlpha"/>
<feOffset dy="3"/>
<feGaussianBlur stdDeviation="2.5"/>
<feColorMatrix type="matrix" values="0 0 0 0 0 0 0 0 0 0 0 0 0 0 0 0 0 0 0.2 0"/>
<feBlend mode="normal" in2="BackgroundImageFix" result="effect1_dropShadow_499_7502"/>
<feBlend mode="normal" in="SourceGraphic" in2="effect1_dropShadow_499_7502" result="shape"/>
</filter>
</defs>
</svg>
