<svg width="61" height="61" viewBox="0 0 61 61" fill="none" xmlns="http://www.w3.org/2000/svg">
<g clip-path="url(#clip0_499_7288)">
<path d="M1.00117 30.4865H1.03676C1.58498 30.4869 2.03472 30.0524 2.0534 29.5044C2.6034 13.7927 15.7861 1.50171 31.4978 2.05159C37.5412 2.26318 43.3603 4.39368 48.1114 8.13455H42.7008C42.1394 8.13455 41.6842 8.58975 41.6842 9.15119C41.6842 9.71264 42.1394 10.1678 42.7008 10.1678H50.834H50.8482C50.9278 10.1614 51.0062 10.1457 51.082 10.1211C51.134 10.1136 51.1852 10.1024 51.2356 10.0875C51.264 10.0753 51.2854 10.0499 51.3128 10.0347C51.4041 9.99005 51.4878 9.93134 51.5609 9.86081L51.5711 9.85369C51.5968 9.81837 51.6204 9.78139 51.6412 9.74288C51.6944 9.67807 51.7393 9.60665 51.7744 9.5304C51.8023 9.44932 51.8195 9.36494 51.8252 9.27929C51.8369 9.23735 51.8454 9.19453 51.8506 9.15119V1.01804C51.8506 0.456604 51.3954 0.00140157 50.834 0.00140157C50.2725 0.00140157 49.8173 0.456604 49.8173 1.01804V6.90644C36.7915 -3.76603 17.58 -1.85829 6.90749 11.1677C2.67152 16.3378 0.251654 22.7566 0.0201136 29.4363C0.00130572 29.9971 0.440369 30.4672 1.00117 30.4865Z" fill="#31BBAC"/>
<path d="M9.23239 49.4193C8.85928 48.9982 8.21549 48.9593 7.79434 49.3324C7.3732 49.7055 7.33431 50.3493 7.70742 50.7705C8.40725 51.5558 9.14661 52.3051 9.92269 53.0152C10.3447 53.3856 10.987 53.3437 11.3574 52.9218C11.7173 52.5117 11.6894 51.8908 11.2941 51.5146C10.5716 50.8519 9.88342 50.1526 9.23239 49.4193Z" fill="#31BBAC"/>
<path d="M21.364 57.469C20.4345 57.1544 19.5221 56.7915 18.6303 56.3822C18.1271 56.133 17.5172 56.3389 17.268 56.842C17.0188 57.3451 17.2246 57.9551 17.7277 58.2043C17.745 58.2128 17.7626 58.2209 17.7803 58.2284C18.7365 58.6686 19.7153 59.0581 20.7123 59.3955C21.2443 59.5755 21.8215 59.2901 22.0014 58.7581C22.1815 58.2261 21.8961 57.6489 21.364 57.469Z" fill="#31BBAC"/>
<path d="M16.0244 55.0161V55.0151C15.1795 54.5145 14.3604 53.9716 13.5702 53.3885C13.1294 53.0406 12.4902 53.1161 12.1424 53.557C11.7946 53.9978 11.87 54.637 12.3109 54.9848C12.3274 54.9978 12.3442 55.0104 12.3615 55.0223C13.2065 55.648 14.083 56.2299 14.9874 56.7659C15.4706 57.0522 16.0944 56.8927 16.3808 56.4095C16.6672 55.9263 16.5076 55.3024 16.0244 55.0161Z" fill="#31BBAC"/>
<path d="M7.39063 47.1249C6.8175 46.3281 6.28554 45.5024 5.79653 44.6514C5.51581 44.1643 4.89337 43.9971 4.40627 44.2778C3.91917 44.5585 3.75193 45.1809 4.03266 45.668C4.55648 46.5781 5.12656 47.4606 5.74062 48.3123C6.07776 48.7613 6.71507 48.8519 7.16404 48.5148C7.60018 48.1873 7.7002 47.574 7.39063 47.1249Z" fill="#31BBAC"/>
<path d="M4.55516 42.4475C4.55516 42.3058 4.52543 42.1656 4.46811 42.0361L4.46608 42.029C4.06819 41.1329 3.71694 40.2166 3.41385 39.2841C3.26644 38.7423 2.70767 38.4226 2.16592 38.5701C1.62418 38.7176 1.30444 39.2763 1.45199 39.8181C1.46063 39.8496 1.47067 39.8807 1.48223 39.9114C1.80667 40.9129 2.1827 41.897 2.60867 42.8596C2.77172 43.2276 3.13644 43.4648 3.5389 43.4645C4.10034 43.4643 4.55529 43.0089 4.55516 42.4475Z" fill="#31BBAC"/>
<path d="M1.87109 37.6436C1.87121 37.6436 1.87147 37.6434 1.87159 37.6434C2.4202 37.5265 2.77043 36.9874 2.65441 36.4387C2.45184 35.4784 2.29846 34.5082 2.19489 33.5321C2.13567 32.9735 1.63472 32.5686 1.07607 32.6278C0.517425 32.687 0.112547 33.188 0.171766 33.7466C0.283089 34.7921 0.447912 35.8311 0.665855 36.8596C0.782261 37.409 1.32184 37.7598 1.87109 37.6436Z" fill="#31BBAC"/>
<path d="M59.3742 36.6055C59.3739 36.6054 59.3735 36.6054 59.3731 36.6053C58.8282 36.4703 58.277 36.8025 58.142 37.3474C57.9063 38.3005 57.6217 39.2408 57.289 40.1645C57.0986 40.6929 57.3726 41.2755 57.901 41.4658C58.4294 41.6562 59.0119 41.3822 59.2023 40.8538C59.559 39.8645 59.8644 38.8572 60.1173 37.8364C60.252 37.2914 59.9193 36.7403 59.3742 36.6055Z" fill="#31BBAC"/>
<path d="M27.0976 58.7636C26.1232 58.6476 25.1555 58.4814 24.1982 58.2655C23.6505 58.1417 23.106 58.4853 22.9823 59.033C22.8585 59.5808 23.2021 60.1252 23.7498 60.2489C24.7759 60.4802 25.8132 60.6584 26.8577 60.7827C26.8982 60.7876 26.9389 60.7899 26.9797 60.7898C27.5411 60.7887 27.9953 60.3324 27.9942 59.771C27.9932 59.2568 27.6084 58.8244 27.0976 58.7636Z" fill="#31BBAC"/>
<path d="M57.5 42.4051C56.9946 42.1611 56.3872 42.3727 56.1427 42.8778C55.7153 43.7615 55.2423 44.6225 54.7255 45.457C54.438 45.9394 54.5961 46.5634 55.0785 46.8507C55.5491 47.1312 56.1574 46.9882 56.4538 46.5276C57.0071 45.633 57.5138 44.7103 57.9716 43.7633C58.2165 43.258 58.0053 42.65 57.5 42.4051Z" fill="#31BBAC"/>
<path d="M54.4964 47.6917C54.0569 47.3422 53.4174 47.4151 53.0679 47.8547C53.0618 47.8623 53.0558 47.8701 53.05 47.8778V47.8758C52.4501 48.6539 51.8105 49.4004 51.1336 50.1124C50.7465 50.5195 50.7626 51.1634 51.1697 51.5505C51.5767 51.9375 52.2206 51.9214 52.6077 51.5144C53.3316 50.7515 54.0164 49.9524 54.6593 49.1202C55.0088 48.6807 54.9358 48.0411 54.4964 47.6917Z" fill="#31BBAC"/>
<path d="M60.0007 30.5482C59.4484 30.52 58.9777 30.9449 58.9496 31.4972C58.9491 31.5075 58.9487 31.518 58.9484 31.5282C58.914 32.5093 58.8287 33.4879 58.6933 34.4602C58.6166 35.0157 59.0042 35.5282 59.5594 35.606C59.6066 35.6129 59.6541 35.6163 59.7018 35.6162C60.2084 35.6154 60.6373 35.2417 60.7072 34.7398C60.852 33.6984 60.9432 32.6502 60.9807 31.5994C61.0001 31.0386 60.5616 30.568 60.0007 30.5482Z" fill="#31BBAC"/>
<path d="M49.0025 52.1347V52.1377C48.2543 52.7765 47.4739 53.3764 46.6642 53.9352C46.2013 54.2552 46.0855 54.8899 46.4055 55.3529C46.7255 55.8158 47.3602 55.9316 47.8232 55.6116C48.689 55.0104 49.5237 54.3657 50.3241 53.68C50.7509 53.315 50.801 52.6733 50.436 52.2465C50.0711 51.8198 49.4292 51.7697 49.0025 52.1347Z" fill="#31BBAC"/>
<path d="M38.7461 57.7553C37.8065 58.0384 36.8531 58.2725 35.8893 58.4568C35.3379 58.5629 34.9768 59.0957 35.083 59.6471C35.1748 60.1251 35.5927 60.4709 36.0794 60.4717C36.1438 60.472 36.2081 60.4662 36.2715 60.4545C37.3047 60.257 38.3268 60.0056 39.3337 59.7011C39.8669 59.5254 40.1568 58.9506 39.981 58.4174C39.8115 57.903 39.2684 57.6118 38.7461 57.7553Z" fill="#31BBAC"/>
<path d="M33.0289 58.8562C33.0102 58.8572 32.9917 58.8589 32.9731 58.8609L32.9782 58.865C32.1649 58.9341 31.3323 58.9666 30.5027 58.9666H30.0381C29.4836 58.9745 29.0305 59.4112 29.0021 59.965C28.992 60.5264 29.4388 60.9898 30.0001 60.9999C30.0002 60.9999 30.0003 60.9999 30.0005 60.9999H30.5027C31.3912 60.9999 32.2818 60.9603 33.146 60.8861C33.7065 60.8538 34.1348 60.3732 34.1024 59.8126C34.07 59.2521 33.5894 58.8238 33.0289 58.8562Z" fill="#31BBAC"/>
<path d="M44.1621 55.4788H44.1631C43.3024 55.9501 42.4181 56.377 41.5137 56.7577C40.9934 56.9688 40.7427 57.5616 40.9537 58.0819C41.1646 58.6021 41.7576 58.8529 42.2779 58.6419C42.2855 58.6389 42.293 58.6357 42.3005 58.6324C43.2696 58.2246 44.217 57.7672 45.1389 57.262C45.6314 56.9922 45.8118 56.3743 45.542 55.8819C45.2725 55.3894 44.6545 55.209 44.1621 55.4788Z" fill="#31BBAC"/>
<path d="M30.5019 9.15137C18.7108 9.15137 9.15234 18.7098 9.15234 30.5009C9.15234 42.2919 18.7108 51.8504 30.5019 51.8504C42.2929 51.8504 51.8514 42.2919 51.8514 30.5009C51.838 18.7154 42.2873 9.16484 30.5019 9.15137ZM46.7681 31.5175H49.7662C49.2381 41.3684 41.3694 49.2371 31.5185 49.7652V46.7672C31.5185 46.2057 31.0633 45.7505 30.5019 45.7505C29.9404 45.7505 29.4852 46.2057 29.4852 46.7672V49.7652C19.6343 49.2371 11.7656 41.3684 11.2375 31.5175H14.2356C14.797 31.5175 15.2522 31.0623 15.2522 30.5009C15.2522 29.9394 14.797 29.4842 14.2356 29.4842H11.2375C11.7656 19.6333 19.6343 11.7646 29.4852 11.2365V14.2346C29.4852 14.796 29.9404 15.2512 30.5019 15.2512C31.0633 15.2512 31.5185 14.796 31.5185 14.2346V11.2365C41.3694 11.7646 49.2381 19.6333 49.7662 29.4842H46.7681C46.2067 29.4842 45.7515 29.9394 45.7515 30.5009C45.7515 31.0623 46.2067 31.5175 46.7681 31.5175Z" fill="#31BBAC"/>
<path d="M31.518 27.6377V18.3008C31.518 17.7394 31.0628 17.2842 30.5014 17.2842C29.9399 17.2842 29.4847 17.7394 29.4847 18.3008V27.6377C28.6237 27.9452 27.946 28.6229 27.6385 29.4839H22.3682C21.8068 29.4839 21.3516 29.9391 21.3516 30.5005C21.3516 31.062 21.8068 31.5172 22.3682 31.5172H27.6385C28.1956 33.1026 29.9325 33.9363 31.518 33.3792C33.1035 32.822 33.9371 31.0851 33.38 29.4997C33.074 28.6286 32.389 27.9438 31.518 27.6377ZM30.5014 31.5172C29.9399 31.5172 29.4847 31.062 29.4847 30.5005C29.4847 29.9391 29.9399 29.4839 30.5014 29.4839C31.0628 29.4839 31.518 29.9391 31.518 30.5005C31.518 31.062 31.0629 31.5172 30.5014 31.5172Z" fill="#31BBAC"/>
</g>
<defs>
<clipPath id="clip0_499_7288">
<rect width="61" height="61" fill="white"/>
</clipPath>
</defs>
</svg>
