<svg width="46" height="46" viewBox="0 0 46 46" fill="none" xmlns="http://www.w3.org/2000/svg">
<g clip-path="url(#clip0_499_7235)">
<path d="M45.7683 23.1156C45.7683 10.477 35.5227 0.231445 22.8842 0.231445C10.2456 0.231445 0 10.477 0 23.1156C0 35.7542 10.2456 45.9998 22.8842 45.9998C35.5227 45.9998 45.7683 35.7542 45.7683 23.1156Z" fill="#45619D"/>
<path d="M25.171 9.13086C20.181 9.13086 18.5341 11.42 18.5341 15.3458V18.4533H15.2559V23.1179H18.5341V37.1004H24.5798V23.1179H28.6885L29.2406 18.4533H24.5798V15.6816C24.5798 14.4289 24.8548 13.7932 26.7998 13.7932H29.2406V9.13086H25.171Z" fill="white"/>
</g>
<defs>
<clipPath id="clip0_499_7235">
<rect width="45.7683" height="45.7683" fill="white" transform="translate(0 0.231445)"/>
</clipPath>
</defs>
</svg>
