<svg width="46" height="46" viewBox="0 0 46 46" fill="none" xmlns="http://www.w3.org/2000/svg">
<circle cx="23.2863" cy="22.7853" r="21.5539" fill="white"/>
<path d="M23.3165 20.1795C22.9075 19.944 22.4925 19.7259 22.1058 19.4537C21.7355 19.1934 21.4138 18.9332 21.0409 18.6793C20.8421 18.544 20.4054 18.4111 20.4054 18.2812C20.4054 18.4726 20.4054 19.24 20.4054 19.3461C20.4054 19.9604 20.3588 23.1203 20.3657 23.5164C20.3756 24.1793 20.3241 24.8421 20.3484 25.5049C20.3712 26.137 20.3751 26.7408 20.3533 27.4012C20.3533 27.4012 21.9323 26.6343 22.143 26.5019C22.9531 25.9918 23.7468 25.438 24.5767 24.9641C24.9847 24.731 25.4066 24.5248 25.7962 24.2616C26.1502 24.0211 27.522 22.8675 27.5696 22.8967C26.936 22.5096 26.3217 22.1045 25.6614 21.762C24.8166 21.3237 24.1394 20.653 23.3165 20.1795Z" fill="#C12025"/>
<path d="M22.8842 0C10.2453 0 0 10.2453 0 22.8842C0 35.523 10.2453 45.7683 22.8842 45.7683C35.523 45.7683 45.7683 35.523 45.7683 22.8842C45.7683 10.2453 35.523 0 22.8842 0ZM35.4536 27.8487C35.2171 28.9621 34.9192 30.1267 34.1557 31.0061C33.3273 31.959 31.9005 31.7081 30.7607 31.7904C27.99 31.9907 25.2251 31.8033 22.4523 31.8762C21.3126 31.9064 20.1887 31.8802 19.0519 31.8236C17.9206 31.7671 16.7373 31.8881 15.6064 31.7969C14.9203 31.7409 14.2297 31.7394 13.5461 31.6551C12.9978 31.5877 12.1689 31.5078 11.7539 31.0934C11.5521 30.8921 11.4862 30.5793 11.3112 30.3443L11.0589 29.9041C9.97265 27.5879 9.99446 25.0377 9.99 22.5074C9.98752 21.5674 10.1015 20.6324 10.0763 19.6915C10.0599 19.0842 10.3355 18.5091 10.3732 17.8978C10.4119 17.2851 10.5274 16.6946 10.8239 16.1627C11.4009 15.128 11.6929 14.6422 12.7653 14.2034C13.3022 13.9833 14.3026 13.9219 14.8777 13.9328C15.5623 13.9447 16.2484 13.9417 16.9321 13.9338C18.3222 13.9169 19.7103 13.8757 21.0999 13.8802C22.3086 13.8837 23.5326 13.8896 24.7383 13.965C25.9455 14.0393 27.1576 13.9238 28.3682 13.9546C29.3657 13.9799 30.3651 13.9779 31.3606 14.0512C32.1057 14.1063 32.9743 14.197 33.6218 14.611C34.0104 14.8593 34.4427 15.191 34.6177 15.5985C35.1264 16.7829 35.5498 17.9821 35.6211 19.278C35.6945 20.6057 35.7114 21.9353 35.7476 23.2639C35.754 23.4929 35.761 23.7225 35.7684 23.9515C35.8125 25.2539 35.7228 26.5731 35.4536 27.8487Z" fill="#C12025"/>
</svg>
