<svg width="31" height="31" viewBox="0 0 31 31" fill="none" xmlns="http://www.w3.org/2000/svg">
<g clip-path="url(#clip0_499_7384)">
<path d="M13.9557 0.0544548C13.8891 0.0847282 13.7802 0.169493 13.7136 0.242149C13.5985 0.369297 13.5925 0.478283 13.5743 1.93141C13.5319 5.12223 13.8286 8.77926 14.4098 12.1638L14.5915 13.2234L14.9003 13.6775C15.312 14.283 16.087 15.2336 16.6501 15.8269C18.1819 17.4435 19.6714 18.4304 21.5665 19.0904C21.6512 19.1207 21.6452 19.163 21.5059 19.5082C21.3727 19.8291 21.3485 19.9804 21.3425 20.4769C21.3425 20.9068 21.3243 21.0703 21.2698 21.0703C21.0821 21.0703 19.8288 20.6041 19.2233 20.3134C18.4604 19.9441 17.4675 19.3084 16.8741 18.8058C16.4261 18.4183 16.2323 18.3396 15.9417 18.4183C15.536 18.5273 15.53 18.5334 15.4513 20.8341C15.3423 23.9039 15.1122 26.3197 14.6823 28.9232C14.5673 29.6134 14.4704 30.2855 14.4704 30.4127C14.4704 31.0484 15.3786 31.2361 15.6692 30.6609C15.8085 30.4005 16.2141 27.6941 16.4321 25.5992C16.5956 24.0734 16.6985 22.7232 16.7591 21.2701L16.8014 20.3558L17.2555 20.6525C17.5038 20.822 17.9579 21.0884 18.2606 21.258C18.7874 21.5425 18.8237 21.5728 18.9448 21.8755C19.1809 22.4629 19.3202 23.147 19.3747 24.0068C19.4473 25.2177 19.6653 25.7687 20.3374 26.4832C20.7915 26.9554 21.1305 27.1492 21.403 27.1007C21.6936 27.0463 21.9177 26.7617 21.9177 26.4468C21.9177 26.2168 21.8813 26.1683 21.4938 25.805C21.1971 25.5326 21.0095 25.2964 20.8823 25.03C20.7007 24.6668 20.6886 24.582 20.6401 23.7222C20.6159 23.1955 20.5553 22.6627 20.5009 22.4931C20.4524 22.3296 20.4161 22.1843 20.4343 22.1722C20.4464 22.1601 20.5069 22.1783 20.5735 22.2146C20.8884 22.3781 21.7421 22.5295 22.5837 22.5597C23.3889 22.5961 23.4919 22.5839 23.8067 22.4689C24.285 22.2873 24.7149 21.8816 24.9571 21.3851C25.1327 21.0339 25.1569 20.9068 25.1751 20.4285C25.2053 19.7625 25.1024 19.3447 24.8057 18.9148C24.4243 18.3517 24.0731 18.1943 22.8561 18.0429C21.8147 17.9158 20.5432 17.389 19.5321 16.6746L19.0598 16.3355L19.3928 16.166C19.9075 15.9056 20.2768 15.6332 20.737 15.1609C20.9913 14.9005 21.2335 14.7129 21.3425 14.6886C21.4454 14.6644 21.8511 14.5252 22.2507 14.3798C23.2073 14.0347 23.4313 14.0045 24.0973 14.1437C24.721 14.2648 24.8663 14.2345 25.0721 13.9136C25.2356 13.6472 25.1872 13.3445 24.951 13.1265C24.5635 12.7814 23.2315 12.6724 22.505 12.9267C22.3475 12.9873 22.2022 13.0175 22.1901 13.0054C22.172 12.9873 22.3536 12.6422 22.5897 12.2244C23.613 10.4504 24.4122 9.48766 25.2235 9.082C25.5505 8.91246 25.6655 8.82164 25.7503 8.64606C25.8956 8.34938 25.8048 8.03453 25.5262 7.865C25.2538 7.69547 25.0782 7.71969 24.5212 7.99821C23.5887 8.46442 22.6624 9.5361 21.5786 11.413C21.288 11.9095 20.846 12.6724 20.5917 13.1023C19.8893 14.2951 19.2657 14.8642 18.303 15.2033L17.9518 15.3244L17.5401 14.8884C17.0557 14.3738 16.5593 13.7683 16.1233 13.1689L15.8145 12.7451L15.5966 11.4433C15.2393 9.31207 14.9548 6.56324 14.9548 5.24332V4.765L15.0819 4.87399C15.1485 4.94059 15.4331 5.29781 15.7177 5.66715C16.4139 6.58746 16.9468 7.07789 17.6552 7.42906C18.1395 7.67125 18.2727 7.70758 18.6118 7.71363C18.9448 7.71969 19.0235 7.69547 19.1567 7.57438C19.3686 7.37457 19.4231 7.05973 19.2839 6.80543C19.1688 6.58746 19.1325 6.5693 18.6602 6.44215C17.9458 6.25446 17.419 5.82457 16.6985 4.84977C16.2202 4.20797 15.6511 3.62672 15.1667 3.29371L14.8337 3.06969V1.78004C14.8337 0.908165 14.8095 0.4359 14.761 0.33297C14.6399 0.0605087 14.2645 -0.0666389 13.9557 0.0544548ZM23.613 19.5384C24.0005 19.8896 23.9702 20.6646 23.5524 21.0824C23.28 21.3548 23.0862 21.3791 22.8682 21.1611C22.4989 20.7857 22.5413 20.0107 22.9469 19.599C23.2194 19.3326 23.3647 19.3205 23.613 19.5384Z" fill="black"/>
<path d="M9.97207 0.181501C9.68145 0.411579 9.67539 0.508453 9.7541 3.46314C9.79043 4.97076 9.8207 6.23619 9.82676 6.27857C9.83281 6.42994 9.06992 7.39263 8.41602 8.05865C7.65918 8.81548 7.16875 9.20298 6.3332 9.69947C5.45527 10.2202 5.20703 10.6016 5.20703 11.4008C5.20703 12.642 6.15762 13.7379 7.11426 13.5987C7.67734 13.5139 9.1123 12.745 9.95996 12.085L10.3838 11.752L10.4262 11.976C10.6986 13.4594 10.8863 14.3555 11.0861 15.1547C11.4736 16.7047 11.5705 17.3829 11.6068 18.7512L11.6432 19.9743L11.4676 20.0469C10.6441 20.3739 10.1295 20.6827 9.71777 21.0944C9.03359 21.7786 8.71875 22.5415 8.92461 23.0258C9.01543 23.2559 9.20313 23.3709 9.47559 23.3709C9.78438 23.3709 9.92363 23.2438 10.1658 22.7352C10.293 22.4627 10.4867 22.1418 10.5896 22.0268C10.7592 21.8331 11.407 21.4334 11.5523 21.4334C11.6189 21.4334 11.6068 21.8391 11.4676 23.5829C11.3344 25.2237 11.183 26.4165 10.8318 28.4569C10.4201 30.8606 10.4443 31.018 11.1951 30.9877C11.5645 30.9696 11.5947 30.9575 11.6977 30.7819C11.8793 30.4731 12.5211 26.3135 12.7391 24.0672C13.0297 21.0823 13.0176 19.0055 12.7088 16.8622C12.6422 16.396 12.4121 15.179 12.2002 14.1557C11.8732 12.5997 11.6916 11.643 11.4676 10.2504C11.4252 9.97798 11.1346 9.74791 10.8318 9.74791C10.6199 9.74791 10.5412 9.79634 10.0689 10.2383C9.46953 10.7893 8.54316 11.5038 8.43418 11.5038C8.3918 11.5038 8.35547 11.4432 8.35547 11.3645C8.35547 11.195 8.04668 10.529 7.91348 10.42C7.85293 10.3776 7.81055 10.3231 7.81055 10.2989C7.81055 10.2747 8.04063 10.087 8.31914 9.88111C9.3 9.15455 10.6563 7.58033 11.0316 6.74478C11.1406 6.49654 11.1467 6.39361 11.1104 5.93951C11.0861 5.65494 11.0498 4.29263 11.0256 2.91822L10.9893 0.411579L10.7895 0.235994C10.5473 0.0180244 10.2082 -0.000139236 9.97207 0.181501ZM6.96895 11.3403C7.1748 11.8065 7.09004 12.3938 6.83574 12.2061C6.53906 11.9942 6.38164 11.3766 6.53906 11.0739C6.62988 10.9044 6.82363 11.0254 6.96895 11.3403Z" fill="black"/>
</g>
<defs>
<clipPath id="clip0_499_7384">
<rect width="31" height="31" fill="white"/>
</clipPath>
</defs>
</svg>
