<svg width="23" height="23" viewBox="0 0 23 23" fill="none" xmlns="http://www.w3.org/2000/svg">
<path d="M11.0222 2.02243C13.9692 2.02243 14.3159 2.02965 15.486 2.08743C16.5622 2.13077 17.1401 2.31857 17.5301 2.47025C18.0429 2.67249 18.4113 2.91807 18.7941 3.30811C19.1769 3.69815 19.4225 4.07374 19.6248 4.5938C19.7764 4.99106 19.9498 5.58334 20.0076 6.68123C20.0654 7.86579 20.0726 8.21972 20.0726 11.2172C20.0726 14.2148 20.0654 14.5687 20.0076 15.7533C19.9642 16.8439 19.7837 17.4434 19.6248 17.8407C19.4225 18.3607 19.1842 18.7363 18.7941 19.1264C18.4113 19.5164 18.0429 19.762 17.5301 19.9642C17.1401 20.1231 16.555 20.3037 15.486 20.3471C14.3231 20.4048 13.9692 20.4121 11.0222 20.4121C8.07526 20.4121 7.72856 20.4048 6.55844 20.3471C5.48222 20.3037 4.90438 20.1159 4.51434 19.9642C4.00151 19.762 3.63314 19.5164 3.25033 19.1264C2.86751 18.7363 2.62193 18.3607 2.41969 17.8407C2.26801 17.4434 2.09466 16.8511 2.03687 15.7533C1.97909 14.5687 1.97187 14.2148 1.97187 11.2172C1.97187 8.21972 1.97909 7.86579 2.03687 6.68123C2.08021 5.59056 2.26078 4.99106 2.41969 4.5938C2.62193 4.07374 2.86029 3.69815 3.25033 3.30811C3.63314 2.91807 4.00151 2.67249 4.51434 2.47025C4.90438 2.31134 5.48944 2.13077 6.55844 2.08743C7.72133 2.03687 8.07526 2.02243 11.0222 2.02243ZM11.0222 0C8.0247 0 7.64911 0.0144459 6.47899 0.0722295C5.30887 0.130013 4.4999 0.31781 3.79927 0.592282C3.06975 0.8812 2.4558 1.26402 1.84908 1.89241C1.23512 2.52081 0.859531 3.14198 0.577836 3.88595C0.303364 4.5938 0.115567 5.41721 0.0650067 6.609C0.00722306 7.80079 0 8.1836 0 11.2317C0 14.2798 0.014446 14.6626 0.0650067 15.8544C0.12279 17.0462 0.310587 17.8624 0.577836 18.5774C0.859531 19.3142 1.23512 19.9426 1.84908 20.571C2.46303 21.1994 3.07698 21.5822 3.79927 21.8711C4.4999 22.1528 5.30887 22.3406 6.47899 22.3911C7.65633 22.4489 8.03192 22.4634 11.0222 22.4634C14.0125 22.4634 14.3953 22.4489 15.5655 22.3911C16.7356 22.3334 17.5445 22.1456 18.2452 21.8711C18.9747 21.5822 19.5886 21.1994 20.1954 20.571C20.8093 19.9426 21.1849 19.3214 21.4666 18.5774C21.7411 17.8696 21.9289 17.0462 21.9794 15.8544C22.0372 14.6626 22.0444 14.2798 22.0444 11.2317C22.0444 8.1836 22.03 7.80079 21.9794 6.609C21.9217 5.41721 21.7339 4.60102 21.4666 3.88595C21.1849 3.14921 20.8093 2.52081 20.1954 1.89241C19.5814 1.26402 18.9675 0.8812 18.2452 0.592282C17.5445 0.310587 16.7356 0.12279 15.5655 0.0722295C14.3953 0.0144459 14.0125 0 11.0222 0Z" fill="white"/>
<path d="M11.0222 5.45996C7.88741 5.45996 5.35938 8.03856 5.35938 11.2239C5.35938 14.4092 7.89463 16.9878 11.0222 16.9878C14.1497 16.9878 16.685 14.4092 16.685 11.2239C16.685 8.03856 14.1497 5.45996 11.0222 5.45996ZM11.0222 14.9654C8.99252 14.9654 7.34569 13.2969 7.34569 11.2239C7.34569 9.15089 8.99252 7.48239 11.0222 7.48239C13.0518 7.48239 14.6987 9.15089 14.6987 11.2239C14.6987 13.2969 13.0518 14.9654 11.0222 14.9654Z" fill="white"/>
<path d="M16.9097 6.57366C17.6397 6.57366 18.2315 5.97217 18.2315 5.23019C18.2315 4.48821 17.6397 3.88672 16.9097 3.88672C16.1797 3.88672 15.5879 4.48821 15.5879 5.23019C15.5879 5.97217 16.1797 6.57366 16.9097 6.57366Z" fill="white"/>
</svg>
