<svg width="13" height="13" viewBox="0 0 13 13" fill="none" xmlns="http://www.w3.org/2000/svg">
<g clip-path="url(#clip0_499_7698)">
<path d="M6.5 0C5.21442 0 3.95772 0.381219 2.8888 1.09545C1.81988 1.80968 0.986755 2.82484 0.494786 4.01256C0.00281636 5.20028 -0.125905 6.50722 0.124899 7.76809C0.375703 9.02897 0.994767 10.1872 1.90381 11.0962C2.81285 12.0052 3.97104 12.6243 5.23192 12.8751C6.49279 13.1259 7.79973 12.9972 8.98744 12.5052C10.1752 12.0133 11.1903 11.1801 11.9046 10.1112C12.6188 9.04229 13 7.78558 13 6.5C12.9981 4.77667 12.3127 3.12445 11.0941 1.90587C9.87556 0.687282 8.22334 0.00186392 6.5 0V0ZM6.5 11.9167C5.42869 11.9167 4.38143 11.599 3.49066 11.0038C2.5999 10.4086 1.90563 9.56264 1.49566 8.57288C1.08568 7.58311 0.978413 6.494 1.18742 5.44326C1.39642 4.39253 1.91231 3.42738 2.66984 2.66984C3.42738 1.91231 4.39253 1.39642 5.44326 1.18741C6.49399 0.97841 7.58311 1.08568 8.57287 1.49565C9.56264 1.90563 10.4086 2.5999 11.0038 3.49066C11.599 4.38143 11.9167 5.42869 11.9167 6.5C11.9151 7.93611 11.3439 9.31295 10.3284 10.3284C9.31294 11.3439 7.93611 11.9151 6.5 11.9167Z" fill="#31BBAC"/>
<path d="M6.49983 3.25C6.35617 3.25 6.2184 3.30707 6.11682 3.40865C6.01523 3.51023 5.95817 3.64801 5.95817 3.79167V6.13437L4.1322 7.27837C4.01009 7.35466 3.92329 7.47632 3.89088 7.61661C3.85848 7.75689 3.88313 7.90431 3.95941 8.02642C4.0357 8.14853 4.15736 8.23533 4.29765 8.26774C4.43793 8.30014 4.58534 8.27549 4.70746 8.19921L6.78746 6.89921C6.86605 6.84997 6.93068 6.78138 6.97516 6.7C7.01964 6.61863 7.04248 6.52719 7.0415 6.43446V3.79167C7.0415 3.64801 6.98443 3.51023 6.88285 3.40865C6.78127 3.30707 6.64349 3.25 6.49983 3.25Z" fill="#31BBAC"/>
</g>
<defs>
<clipPath id="clip0_499_7698">
<rect width="13" height="13" fill="white"/>
</clipPath>
</defs>
</svg>
