<svg width="26" height="26" viewBox="0 0 26 26" fill="none" xmlns="http://www.w3.org/2000/svg">
<path d="M3.26446 0.0659122C2.99024 0.218256 2.68047 0.847944 2.58399 1.43193C2.50274 1.92451 2.57383 2.53388 2.77188 3.02138L2.90391 3.36162L2.40625 3.85419C0.375004 5.86513 -0.432418 8.72412 0.253129 11.4612C0.826957 13.7261 2.48243 15.6405 5.28047 17.2655C5.63086 17.4636 5.92539 17.6413 5.93555 17.6464C5.94571 17.6565 5.87461 17.7632 5.77305 17.8851C5.07735 18.7483 5.03672 20.028 5.67149 21.1249C5.93555 21.5768 6.72774 22.369 7.26094 22.7143C8.03789 23.212 8.79961 23.5522 9.74414 23.8214C10.2723 23.9686 11.3234 24.1718 11.557 24.1718C11.6688 24.1718 11.6789 24.1921 11.6789 24.3901C11.6789 25.1874 11.9887 25.7104 12.5879 25.9237C13.1363 26.1167 13.7762 25.8933 14.091 25.3956C14.218 25.1874 14.3195 24.7507 14.3195 24.3901C14.3195 24.1921 14.3297 24.1718 14.4414 24.1718C14.675 24.1718 15.7262 23.9686 16.2543 23.8214C17.1988 23.5522 17.9606 23.212 18.7375 22.7143C19.2707 22.369 20.0629 21.5768 20.327 21.1249C20.9617 20.028 20.9211 18.7483 20.2254 17.8851C20.1238 17.7632 20.0527 17.6565 20.0629 17.6464C20.073 17.6413 20.3676 17.4636 20.718 17.2655C22.7188 16.1026 24.0949 14.8331 24.9734 13.3401C26.1871 11.2835 26.3141 8.62763 25.3188 6.35263C24.882 5.37255 24.3641 4.62099 23.5922 3.85419L23.0945 3.36162L23.2266 3.02138C23.5922 2.1124 23.4906 1.05107 22.9727 0.294428C22.7594 -0.015337 22.4191 -0.0762749 22.2109 0.157318C22.0789 0.304585 22.0992 0.548334 22.277 0.837788C22.5867 1.33544 22.6781 1.9499 22.5207 2.47802C22.475 2.62021 22.4242 2.74716 22.3988 2.7624C22.3785 2.77763 22.1805 2.66591 21.957 2.51865C20.3523 1.44209 18.3211 0.67021 16.0969 0.284271C14.9441 0.0862255 14.284 0.030365 12.9992 0.030365C11.7145 0.030365 11.0543 0.0862255 9.90157 0.284271C7.67735 0.67021 5.6461 1.44209 4.04141 2.51865C3.81797 2.66591 3.61993 2.77763 3.59961 2.7624C3.51836 2.71669 3.40157 2.21396 3.40157 1.92958C3.40157 1.55888 3.51836 1.16279 3.73672 0.80732C3.95 0.456928 3.95 0.340132 3.76211 0.147163C3.60469 -0.0102596 3.44727 -0.0356503 3.26446 0.0659122ZM14.091 0.91396C17.7371 1.16279 20.9109 2.42216 22.9066 4.41279C23.2266 4.73779 23.6074 5.15927 23.7496 5.35224C24.9328 6.96201 25.3746 8.96786 24.9785 10.928C24.7094 12.2585 24.0695 13.4061 22.9777 14.4979C21.6879 15.7929 20.2 16.7069 17.1125 18.0933C15.4824 18.8245 14.934 19.0987 14.5379 19.378C14.157 19.6522 13.9895 19.8554 13.9082 20.1601C13.8422 20.414 13.8828 20.612 14.1367 21.3128C14.2891 21.7292 14.3195 22.1913 14.218 22.4503C14.1773 22.5468 14.0605 22.755 13.9488 22.9175C13.5984 23.4456 13.4969 23.7249 13.4563 24.2936C13.4156 24.8827 13.3699 24.9944 13.1516 25.0858C13.0297 25.1366 12.9688 25.1366 12.8469 25.0858C12.6285 24.9944 12.5828 24.8827 12.5422 24.2936C12.5016 23.7249 12.4 23.4456 12.0496 22.9175C11.9379 22.755 11.8211 22.5468 11.7805 22.4503C11.6789 22.1913 11.7094 21.7292 11.8617 21.3128C12.1156 20.6171 12.1563 20.414 12.0902 20.1651C11.9277 19.5507 11.4453 19.2409 8.88594 18.0933C5.79844 16.7069 4.31055 15.7929 3.02071 14.4979C1.65977 13.1319 0.994535 11.6999 0.882816 9.87685C0.806644 8.6124 1.12149 7.25146 1.75625 6.11396C2.4418 4.89013 3.65039 3.73232 5.14336 2.84872C7.56055 1.43193 10.9273 0.700678 14.091 0.91396ZM8.58125 18.9007C10.3789 19.7233 11.034 20.0686 11.1863 20.2718C11.2777 20.3936 11.2777 20.4038 11.1457 20.7491C10.9477 21.2569 10.9172 21.3636 10.8664 21.7546C10.8105 22.2015 10.8715 22.5722 11.0645 22.953L11.2219 23.2577L11.0035 23.2272C10.5668 23.1612 9.6375 22.8972 9.12969 22.6991C8.175 22.3183 7.51993 21.8917 6.90039 21.2417C6.36211 20.678 6.1336 20.2108 6.10313 19.6319C6.08789 19.3171 6.10313 19.1393 6.16914 18.9464C6.28086 18.6112 6.68711 18.0628 6.79883 18.0933C6.84453 18.1085 7.64688 18.469 8.58125 18.9007ZM19.5145 18.3827C19.8344 18.8042 19.9207 19.1038 19.8953 19.6319C19.8648 20.2108 19.6363 20.678 19.098 21.2417C18.4785 21.8917 17.8234 22.3183 16.8688 22.6991C16.3609 22.8972 15.4316 23.1612 14.9949 23.2272L14.7766 23.2577L14.934 22.953C15.2488 22.3284 15.2285 21.7292 14.8527 20.7491C14.7207 20.4038 14.7207 20.3936 14.8121 20.2718C14.9645 20.0686 15.6652 19.6979 17.3918 18.9159C18.2855 18.5097 19.0523 18.1542 19.093 18.1288C19.2301 18.0425 19.2859 18.0729 19.5145 18.3827Z" fill="black"/>
<path d="M12.2379 1.75702C8.71367 1.92967 5.92578 2.95545 3.9707 4.79882C2.82305 5.88046 2.08164 7.18554 1.82266 8.58202C1.74141 9.01366 1.74141 10.0801 1.82266 10.5625C2.03594 11.8574 2.69102 13.0254 3.77773 14.0512C4.86445 15.082 6.43867 16.0316 8.91172 17.1437C10.7195 17.9562 10.8414 18.0172 11.273 18.266C11.5117 18.4031 11.8672 18.6215 12.0602 18.7484C12.4867 19.0227 12.6848 19.0938 12.9996 19.0938C13.3144 19.0938 13.5125 19.0227 13.9391 18.7484C14.1371 18.6215 14.4875 18.4031 14.7262 18.266C15.1578 18.0172 15.2797 17.9562 17.0875 17.1437C18.2656 16.6156 19.7027 15.8742 20.3934 15.4426C23.034 13.7871 24.2375 11.9539 24.2375 9.57226C24.2375 9.20663 24.2121 8.76483 24.1766 8.58202C23.9125 7.18046 23.1762 5.88046 22.0285 4.79882C20.3172 3.18397 17.8898 2.16834 15.0156 1.85858C14.325 1.78241 12.8168 1.72655 12.2379 1.75702ZM14.7262 2.69647C17.1586 2.91483 19.4793 3.77811 20.9976 5.03241C22.7039 6.43905 23.5469 8.22147 23.359 10.0445C23.1965 11.6187 22.4195 12.8629 20.8453 14.0766C19.9516 14.7672 17.9762 15.8336 16.0719 16.6512C15.0664 17.0828 14.4773 17.3875 13.6902 17.875C13.3805 18.073 13.0707 18.2305 12.9996 18.2305C12.9285 18.2305 12.6187 18.073 12.309 17.875C11.5219 17.3875 10.9328 17.0828 9.92734 16.6512C8.02304 15.8336 6.04765 14.7672 5.1539 14.0766C3.57969 12.8629 2.80273 11.6187 2.64023 10.0445C2.49805 8.66327 2.92969 7.3328 3.91484 6.11913C4.65117 5.21522 5.54492 4.51952 6.71797 3.94061C8.91679 2.84881 11.6691 2.42225 14.7262 2.69647Z" fill="black"/>
<path d="M4.57921 6.55065C4.42687 6.61159 4.31515 6.88073 4.36593 7.05339C4.44718 7.31745 4.92452 8.27722 5.02608 8.37878C5.25968 8.61238 5.73702 8.41941 5.73702 8.08933C5.73702 8.01316 5.58976 7.64753 5.4171 7.28698C5.16827 6.77917 5.06163 6.61159 4.95499 6.56081C4.79757 6.48972 4.74171 6.48972 4.57921 6.55065Z" fill="black"/>
<path d="M21.0285 6.56588C20.8813 6.63698 20.2617 7.86589 20.2617 8.08933C20.2617 8.41941 20.7391 8.61238 20.9727 8.37878C21.0742 8.27722 21.5516 7.31745 21.6328 7.05339C21.6887 6.87565 21.5668 6.61159 21.4043 6.55065C21.2418 6.48971 21.1859 6.48971 21.0285 6.56588Z" fill="black"/>
<path d="M5.84965 9.20654C5.64653 9.41982 5.69731 9.61279 6.11879 10.2323C6.33207 10.537 6.55043 10.8315 6.60629 10.8772C6.86019 11.0905 7.26136 10.8874 7.26136 10.5472C7.26136 10.4151 7.17504 10.2476 6.92621 9.87178C6.45902 9.18115 6.36762 9.08975 6.14418 9.08975C6.01723 9.08975 5.92582 9.12529 5.84965 9.20654Z" fill="black"/>
<path d="M19.5559 9.22677C19.2867 9.48068 18.7383 10.3592 18.7383 10.5318C18.7383 10.8467 19.0125 11.0346 19.307 10.9229C19.5051 10.8467 20.2617 9.72443 20.2617 9.50607C20.2617 9.13029 19.8402 8.96271 19.5559 9.22677Z" fill="black"/>
<path d="M7.6167 11.5273C7.37295 11.771 7.44404 11.9996 7.89092 12.4363C8.12959 12.6699 8.20069 12.7156 8.35811 12.7156C8.5003 12.7156 8.57139 12.68 8.6628 12.5734C8.87608 12.3296 8.82022 12.1621 8.38858 11.7152C8.13975 11.4664 8.07881 11.4257 7.91123 11.4257C7.78428 11.4257 7.68271 11.4613 7.6167 11.5273Z" fill="black"/>
<path d="M17.6104 11.7151C17.1635 12.1772 17.1128 12.3498 17.3616 12.5987C17.6003 12.8322 17.7272 12.8018 18.1436 12.3955C18.4788 12.0705 18.5092 12.0248 18.5092 11.8319C18.5092 11.5678 18.3569 11.4256 18.0827 11.4256C17.9253 11.4256 17.8542 11.4662 17.6104 11.7151Z" fill="black"/>
</svg>
