<svg width="52" height="52" viewBox="0 0 52 52" fill="none" xmlns="http://www.w3.org/2000/svg">
<path d="M26.491 22.9272C26.0263 22.6597 25.5549 22.4118 25.1156 22.1026C24.6948 21.8069 24.3292 21.5112 23.9057 21.2228C23.6798 21.069 23.1836 20.9181 23.1836 20.7705C23.1836 20.9879 23.1836 21.8598 23.1836 21.9804C23.1836 22.6783 23.1306 26.2685 23.1385 26.7185C23.1498 27.4716 23.0912 28.2247 23.1188 28.9777C23.1447 29.6959 23.1492 30.3819 23.1244 31.1322C23.1244 31.1322 24.9184 30.2608 25.1578 30.1105C26.0782 29.5309 26.9799 28.9017 27.9228 28.3632C28.3864 28.0985 28.8657 27.8642 29.3084 27.5651C29.7106 27.2919 31.2691 25.9812 31.3232 26.0144C30.6034 25.5745 29.9055 25.1144 29.1552 24.7251C28.1954 24.2272 27.426 23.4651 26.491 22.9272Z" fill="#C12025"/>
<path d="M26 0C11.6403 0 0 11.6403 0 26C0 40.3597 11.6403 52 26 52C40.3597 52 52 40.3597 52 26C52 11.6403 40.3597 0 26 0ZM40.2808 31.6405C40.0122 32.9055 39.6737 34.2286 38.8062 35.2279C37.865 36.3104 36.244 36.0254 34.949 36.1189C31.801 36.3465 28.6597 36.1336 25.5094 36.2164C24.2145 36.2507 22.9376 36.2209 21.646 36.1567C20.3607 36.0925 19.0162 36.2299 17.7314 36.1263C16.9518 36.0626 16.1672 36.0609 15.3905 35.9652C14.7675 35.8886 13.8257 35.7979 13.3543 35.327C13.125 35.0983 13.0501 34.7429 12.8513 34.4759L12.5646 33.9757C11.3305 31.3442 11.3553 28.4468 11.3502 25.5719C11.3474 24.504 11.4769 23.4417 11.4482 22.3726C11.4296 21.6826 11.7428 21.0292 11.7856 20.3347C11.8295 19.6386 11.9608 18.9677 12.2976 18.3633C12.9532 17.1878 13.285 16.6358 14.5033 16.1373C15.1133 15.8873 16.25 15.8174 16.9034 15.8298C17.6812 15.8433 18.4608 15.8399 19.2375 15.8309C20.8169 15.8118 22.394 15.765 23.9728 15.7701C25.3461 15.774 26.7367 15.7808 28.1066 15.8664C29.4781 15.9509 30.8553 15.8197 32.2308 15.8546C33.364 15.8833 34.4996 15.8811 35.6306 15.9644C36.4772 16.0269 37.464 16.13 38.1996 16.6003C38.6412 16.8825 39.1324 17.2594 39.3312 17.7224C39.9091 19.068 40.3901 20.4305 40.4712 21.9029C40.5546 23.4113 40.5737 24.9219 40.6149 26.4315C40.6222 26.6917 40.6301 26.9525 40.6385 27.2127C40.6886 28.6924 40.5867 30.1912 40.2808 31.6405Z" fill="#C12025"/>
</svg>
