<svg width="28" height="20" viewBox="0 0 28 20" fill="none" xmlns="http://www.w3.org/2000/svg">
<path d="M5.5784 0.107029C4.88386 0.178123 4.27136 0.303905 3.58777 0.511717C2.28074 0.910936 2.24246 0.949217 2.24246 1.97187V2.67187H1.30183C0.284645 2.67187 0.208083 2.69375 0.0604263 2.98359C0.0166763 3.07109 0.000270062 5.36797 0.000270062 11.2852C0.000270062 20.2758 -0.0216049 19.6906 0.328395 19.8711C0.470583 19.9422 2.02918 19.9531 14.0003 19.9531C25.9714 19.9531 27.53 19.9422 27.6721 19.8711C28.0221 19.6906 28.0003 20.2758 28.0003 11.2852C28.0003 3.74375 27.9948 3.0875 27.9073 2.94531C27.7651 2.69922 27.6284 2.67187 26.6604 2.67187H25.7581V1.97187C25.7581 0.965624 25.7526 0.960155 24.5823 0.566404C22.1378 -0.253908 19.1682 -0.0570335 16.4886 1.11328C15.7886 1.41953 14.8971 1.90625 14.3175 2.29453L14.0057 2.50781L13.4698 2.16328C11.0307 0.593748 8.15965 -0.15547 5.5784 0.107029ZM8.08855 1.33203C9.75105 1.56719 11.3589 2.18516 12.8956 3.175L13.3987 3.50312V10.8531C13.3987 14.8945 13.3932 18.2031 13.3823 18.2031C13.3714 18.2031 13.087 18.0445 12.7534 17.8531C11.3698 17.0656 9.8823 16.557 8.17605 16.2836C7.6073 16.1906 5.6823 16.1906 5.11355 16.2836C4.74715 16.3383 3.99793 16.5133 3.51668 16.65L3.3909 16.6828V9.25078V1.81328L3.62605 1.72578C4.01433 1.57812 4.65965 1.41406 5.17371 1.3375C5.82996 1.23359 7.37762 1.23359 8.08855 1.33203ZM22.7776 1.33203C23.3245 1.41406 24.2214 1.63828 24.4784 1.75312L24.6096 1.81328V9.24531C24.6096 16.3 24.6042 16.6773 24.5167 16.65C23.3026 16.2672 21.662 16.1031 20.3714 16.2289C18.5612 16.4039 16.6581 17.0219 15.1323 17.9187C14.8643 18.0773 14.6346 18.2031 14.6237 18.2031C14.6128 18.2031 14.6018 14.8945 14.6018 10.8531V3.50312L15.1378 3.15859C16.5542 2.23984 18.2987 1.56172 19.8628 1.3375C20.5737 1.23359 22.105 1.23359 22.7776 1.33203ZM2.2534 10.7984L2.2698 17.7766L2.45574 17.9406C2.68543 18.1484 2.8659 18.132 3.62605 17.8531C4.29871 17.607 5.03699 17.4539 5.9284 17.3773C7.60183 17.2352 9.69637 17.6508 11.3479 18.4492L11.9495 18.7391L6.55183 18.7445L1.14871 18.75V11.2852V3.82031H1.69558H2.24246L2.2534 10.7984ZM26.8518 11.2852V18.75H21.4542L16.0511 18.7445L16.4065 18.5641C16.9971 18.2578 17.9815 17.8914 18.6487 17.7164C19.6604 17.4594 20.3714 17.3664 21.4104 17.3719C22.5425 17.3719 23.3518 17.4977 24.2761 17.8258C25.1565 18.132 25.3151 18.1484 25.5448 17.9406L25.7307 17.7766L25.7471 10.7984L25.7581 3.82031H26.305H26.8518V11.2852Z" fill="white"/>
</svg>
