<svg width="46" height="46" viewBox="0 0 46 46" fill="none" xmlns="http://www.w3.org/2000/svg">
<g clip-path="url(#clip0_499_7246)">
<path d="M0 22.3018V23.5354C0.321808 35.3708 9.85091 44.873 21.1947 45.767H24.6809C36.0872 44.8641 45.4554 35.2814 45.7683 23.5175V22.3018C45.4554 10.3323 35.7654 0.624389 24.082 0.0254681C11.5136 -0.60921 0.348626 9.47412 0 22.3018Z" fill="url(#paint0_radial_499_7246)"/>
<path d="M22.9927 11.4961C26.6398 11.4961 27.0689 11.5051 28.517 11.5766C29.849 11.6302 30.5641 11.8626 31.0468 12.0503C31.6815 12.3006 32.1374 12.6046 32.6112 13.0873C33.0849 13.57 33.3889 14.0348 33.6392 14.6784C33.8269 15.1701 34.0414 15.9031 34.1129 17.2619C34.1844 18.7279 34.1934 19.1659 34.1934 22.8756C34.1934 26.5854 34.1844 27.0234 34.1129 28.4894C34.0593 29.8392 33.8358 30.5812 33.6392 31.0728C33.3889 31.7164 33.0939 32.1813 32.6112 32.664C32.1374 33.1467 31.6815 33.4506 31.0468 33.7009C30.5641 33.8976 29.84 34.121 28.517 34.1747C27.0778 34.2462 26.6398 34.2551 22.9927 34.2551C19.3455 34.2551 18.9164 34.2462 17.4683 34.1747C16.1364 34.121 15.4212 33.8886 14.9385 33.7009C14.3038 33.4506 13.8479 33.1467 13.3742 32.664C12.9004 32.1813 12.5965 31.7164 12.3462 31.0728C12.1584 30.5812 11.9439 29.8481 11.8724 28.4894C11.8009 27.0234 11.7919 26.5854 11.7919 22.8756C11.7919 19.1659 11.8009 18.7279 11.8724 17.2619C11.926 15.912 12.1495 15.1701 12.3462 14.6784C12.5965 14.0348 12.8915 13.57 13.3742 13.0873C13.8479 12.6046 14.3038 12.3006 14.9385 12.0503C15.4212 11.8537 16.1453 11.6302 17.4683 11.5766C18.9075 11.514 19.3455 11.4961 22.9927 11.4961ZM22.9927 8.99316C19.2829 8.99316 18.8181 9.01104 17.37 9.08256C15.9218 9.15407 14.9206 9.38649 14.0535 9.72617C13.1507 10.0837 12.3909 10.5575 11.64 11.3352C10.8802 12.1129 10.4153 12.8817 10.0667 13.8024C9.72701 14.6784 9.49459 15.6975 9.43201 17.1725C9.3605 18.6474 9.35156 19.1212 9.35156 22.8935C9.35156 26.6658 9.36944 27.1396 9.43201 28.6145C9.50353 30.0895 9.73594 31.0996 10.0667 31.9846C10.4153 32.8964 10.8802 33.6741 11.64 34.4518C12.3998 35.2295 13.1596 35.7033 14.0535 36.0608C14.9206 36.4095 15.9218 36.6419 17.37 36.7045C18.827 36.776 19.2919 36.7938 22.9927 36.7938C26.6935 36.7938 27.1672 36.776 28.6154 36.7045C30.0635 36.6329 31.0647 36.4005 31.9318 36.0608C32.8346 35.7033 33.5945 35.2295 34.3453 34.4518C35.1052 33.6741 35.57 32.9053 35.9186 31.9846C36.2583 31.1086 36.4907 30.0895 36.5533 28.6145C36.6248 27.1396 36.6338 26.6658 36.6338 22.8935C36.6338 19.1212 36.6159 18.6474 36.5533 17.1725C36.4818 15.6975 36.2494 14.6874 35.9186 13.8024C35.57 12.8906 35.1052 12.1129 34.3453 11.3352C33.5855 10.5575 32.8257 10.0837 31.9318 9.72617C31.0647 9.37755 30.0635 9.14513 28.6154 9.08256C27.1672 9.01104 26.6935 8.99316 22.9927 8.99316Z" fill="white"/>
<path d="M22.9927 15.751C19.1131 15.751 15.9844 18.9422 15.9844 22.8844C15.9844 26.8266 19.122 30.0178 22.9927 30.0178C26.8633 30.0178 30.0009 26.8266 30.0009 22.8844C30.0009 18.9422 26.8633 15.751 22.9927 15.751ZM22.9927 27.5149C20.4808 27.5149 18.4426 25.4499 18.4426 22.8844C18.4426 20.3189 20.4808 18.2539 22.9927 18.2539C25.5046 18.2539 27.5427 20.3189 27.5427 22.8844C27.5427 25.4499 25.5046 27.5149 22.9927 27.5149Z" fill="white"/>
<path d="M30.2784 17.1281C31.1819 17.1281 31.9143 16.3837 31.9143 15.4654C31.9143 14.5471 31.1819 13.8027 30.2784 13.8027C29.375 13.8027 28.6426 14.5471 28.6426 15.4654C28.6426 16.3837 29.375 17.1281 30.2784 17.1281Z" fill="white"/>
</g>
<defs>
<radialGradient id="paint0_radial_499_7246" cx="0" cy="0" r="1" gradientUnits="userSpaceOnUse" gradientTransform="translate(0.836329 41.5705) rotate(-86.9998) scale(66.1687 56.2434)">
<stop stop-color="#FED576"/>
<stop offset="0.2634" stop-color="#F47133"/>
<stop offset="0.6091" stop-color="#BC3081"/>
<stop offset="1" stop-color="#4C63D2"/>
</radialGradient>
<clipPath id="clip0_499_7246">
<rect width="45.7683" height="45.7683" fill="white"/>
</clipPath>
</defs>
</svg>
