<svg width="13" height="13" viewBox="0 0 13 13" fill="none" xmlns="http://www.w3.org/2000/svg">
<circle cx="6.5" cy="6.5" r="6.5" fill="#31BBAC"/>
<path d="M9.02199 7.7741C8.60067 7.43825 8.17309 7.23481 7.75695 7.57015L7.50846 7.77283C7.32665 7.91995 6.98861 8.60738 5.68166 7.20615C4.37497 5.8067 5.15256 5.5888 5.33464 5.44294L5.58449 5.24001C5.99846 4.90391 5.84224 4.4808 5.54367 4.04527L5.36349 3.78146C5.06356 3.34694 4.73696 3.06157 4.3219 3.39716L4.09763 3.5798C3.91419 3.70435 3.40143 4.10919 3.27704 4.87829C3.12735 5.80111 3.59957 6.85787 4.68144 8.01736C5.76195 9.17735 6.81987 9.76002 7.822 9.74987C8.65483 9.7415 9.1578 9.32499 9.31512 9.17355L9.5402 8.99066C9.95417 8.65532 9.69697 8.31389 9.27538 7.97728L9.02199 7.7741Z" fill="white"/>
</svg>
