<svg width="60" height="60" viewBox="0 0 60 60" fill="none" xmlns="http://www.w3.org/2000/svg">
<g filter="url(#filter0_d_499_7534)">
<circle cx="30" cy="27" r="25" fill="#299B8E"/>
</g>
<path d="M28.7039 13.0547C25.4336 13.3719 22.4367 14.7828 20.1125 17.1016C17.9031 19.311 16.5523 22.0563 16.0984 25.2774C15.9945 26.043 16.0109 28.0938 16.1312 28.8867C16.3664 30.4508 16.7601 31.7414 17.4219 33.1086L17.8484 33.9945L16.957 36.7672C16.4648 38.2985 16.0437 39.6438 16.0219 39.7586C15.9125 40.4367 16.5633 41.0875 17.2414 40.9781C17.3562 40.9563 18.7015 40.5352 20.2328 40.043L23.0055 39.1516L23.8914 39.5781C25.2586 40.2399 26.5492 40.6336 28.1133 40.8688C28.9062 40.9891 30.957 41.0055 31.7226 40.9016C34.9437 40.4477 37.6672 39.1078 39.8875 36.8985C42.0586 34.7274 43.3875 32.075 43.8742 28.9141C44.0055 28.0336 44.0055 25.9664 43.8742 25.086C43.3875 21.9305 42.0695 19.2945 39.8984 17.1125C37.7437 14.9524 35.0586 13.607 31.9687 13.1367C31.2851 13.0328 29.4094 12.9891 28.7039 13.0547ZM31.0992 15.2422C32.9039 15.4227 34.8945 16.0953 36.2562 16.9922C38.6898 18.5836 40.3578 20.7164 41.2055 23.3141C41.8562 25.3047 41.9766 27.2024 41.5883 29.2695C41.3422 30.5547 40.675 32.2445 40.0078 33.2563C38.4328 35.657 36.3164 37.3305 33.7625 38.1836C30.443 39.2938 27.0578 38.9219 23.875 37.1063C23.2625 36.7563 23.2515 36.7617 20.8398 37.5438C19.7297 37.9047 18.8109 38.2 18.8055 38.1945C18.8 38.1891 19.0953 37.2703 19.4562 36.1602C20.2711 33.661 20.2601 33.7703 19.7898 32.9336C18.7836 31.1453 18.2914 29.4336 18.2039 27.4102C17.9851 22.2422 21.3539 17.4188 26.314 15.7945C27.9164 15.2696 29.5187 15.0891 31.0992 15.2422Z" fill="white"/>
<path d="M24.0504 25.7254C23.9246 25.7691 23.7113 25.9113 23.5801 26.0481C23.0332 26.5949 23.0332 27.4043 23.5801 27.9512C24.127 28.498 24.9363 28.498 25.4832 27.9512C26.5113 26.9285 25.4231 25.2387 24.0504 25.7254Z" fill="white"/>
<path d="M29.5191 25.7254C29.3934 25.7691 29.1801 25.9113 29.0488 26.0481C28.502 26.5949 28.502 27.4043 29.0488 27.9512C29.5957 28.498 30.4051 28.498 30.952 27.9512C31.9801 26.9285 30.8918 25.2387 29.5191 25.7254Z" fill="white"/>
<path d="M34.9879 25.7254C34.8621 25.7691 34.6488 25.9113 34.5176 26.0481C33.9707 26.5949 33.9707 27.4043 34.5176 27.9512C35.0644 28.498 35.8738 28.498 36.4207 27.9512C37.4488 26.9285 36.3605 25.2387 34.9879 25.7254Z" fill="white"/>
<defs>
<filter id="filter0_d_499_7534" x="0" y="0" width="60" height="60" filterUnits="userSpaceOnUse" color-interpolation-filters="sRGB">
<feFlood flood-opacity="0" result="BackgroundImageFix"/>
<feColorMatrix in="SourceAlpha" type="matrix" values="0 0 0 0 0 0 0 0 0 0 0 0 0 0 0 0 0 0 127 0" result="hardAlpha"/>
<feOffset dy="3"/>
<feGaussianBlur stdDeviation="2.5"/>
<feColorMatrix type="matrix" values="0 0 0 0 0 0 0 0 0 0 0 0 0 0 0 0 0 0 0.2 0"/>
<feBlend mode="normal" in2="BackgroundImageFix" result="effect1_dropShadow_499_7534"/>
<feBlend mode="normal" in="SourceGraphic" in2="effect1_dropShadow_499_7534" result="shape"/>
</filter>
</defs>
</svg>
