<svg width="20" height="20" viewBox="0 0 20 20" fill="none" xmlns="http://www.w3.org/2000/svg">
<path fill-rule="evenodd" clip-rule="evenodd" d="M8.97435 1.53846C4.86762 1.53846 1.53846 4.86762 1.53846 8.97435C1.53846 13.0811 4.86762 16.4102 8.97435 16.4102C10.9853 16.4102 12.8098 15.612 14.1483 14.3151C14.1713 14.2837 14.1969 14.2537 14.2253 14.2253C14.2537 14.1969 14.2837 14.1713 14.3151 14.1483C15.612 12.8098 16.4102 10.9853 16.4102 8.97435C16.4102 4.86762 13.0811 1.53846 8.97435 1.53846ZM15.8409 14.753C17.1562 13.1918 17.9487 11.1756 17.9487 8.97435C17.9487 4.01795 13.9307 0 8.97435 0C4.01795 0 0 4.01795 0 8.97435C0 13.9307 4.01795 17.9487 8.97435 17.9487C11.1756 17.9487 13.1918 17.1562 14.753 15.8409L18.6868 19.7747C18.9872 20.0751 19.4743 20.0751 19.7747 19.7747C20.0751 19.4743 20.0751 18.9872 19.7747 18.6868L15.8409 14.753Z" fill="#299B8E"/>
</svg>
