<svg width="28" height="28" viewBox="0 0 28 28" fill="none" xmlns="http://www.w3.org/2000/svg">
<g clip-path="url(#clip0_499_7416)">
<path d="M13.5625 0.464844V0.929688H14H14.4375V0.464844V1.58325e-08H14H13.5625V0.464844Z" fill="black"/>
<path d="M12.3977 2.06714L12.0859 2.38433L12.343 2.5812C12.8789 2.98042 13.3328 3.13354 14 3.13354C14.6781 3.13354 15.2633 2.92573 15.7609 2.49917L15.9141 2.37339L15.5859 2.05073L15.2578 1.72808L15.1375 1.84839C15.0664 1.90854 14.8859 2.01792 14.7383 2.08901C14.1914 2.33511 13.1961 2.20933 12.8734 1.85386C12.8242 1.79917 12.7641 1.74995 12.7477 1.74995C12.7258 1.74995 12.5727 1.89214 12.3977 2.06714Z" fill="black"/>
<path d="M10.8059 3.6585L10.4941 3.97568L10.7184 4.17803C11.2434 4.65381 11.9488 5.02568 12.7801 5.26084C13.3981 5.43584 14.6012 5.43584 15.2191 5.26084C16.0504 5.02568 16.7559 4.65381 17.2809 4.17803L17.5051 3.97568L17.1934 3.6585L16.8871 3.34678L16.5043 3.64209C15.7551 4.22178 14.9566 4.48975 13.9996 4.48975C13.0426 4.48975 12.2441 4.22178 11.4949 3.64209L11.1121 3.34678L10.8059 3.6585Z" fill="black"/>
<path d="M4.54922 7.2625L-0.0117188 9.65234L0.0210938 10.4453C0.119531 13.0539 0.901563 15.5039 2.32344 17.6367C2.90313 18.5117 3.36797 19.075 4.18828 19.8844L4.91016 20.6008L4.54922 21.8148L4.18281 23.0234H2.09375H-0.000781246V23.4883V23.9531H2.42188H4.84453L5.41328 22.0555C5.725 21.0055 5.99297 20.1305 6.00938 20.0977C6.03125 20.0539 6.45782 22.668 7.16328 27.1906L7.28907 28H7.87969C8.39375 28 8.47032 27.9891 8.49766 27.9016C8.51407 27.8523 8.875 26.5891 9.2961 25.1016C9.71719 23.6141 10.0836 22.3453 10.1 22.2852C10.1219 22.2195 10.2805 22.8484 10.4992 23.8219C10.7016 24.7242 10.882 25.5336 10.9039 25.6102L10.9367 25.7578H19.468H27.9992V25.293V24.8281H19.8234H11.6477L11.6203 24.7023C11.4672 24.0352 11.4289 23.8602 11.4289 23.7836C11.4289 23.707 11.4727 23.707 11.8828 23.7727C12.7195 23.9039 13.9445 23.9586 14.8359 23.8984C18.3469 23.6633 21.4039 22.2852 23.8703 19.8242C26.4078 17.2922 27.8352 14.0437 27.9774 10.4727L28.0102 9.65234L23.4383 7.25703L18.8664 4.85625L18.4891 5.26094C17.6633 6.1414 16.4274 6.83594 15.175 7.11484C14.6773 7.22969 13.25 7.21328 12.7469 7.09297C11.4781 6.78672 10.275 6.10312 9.4711 5.22265C9.29063 5.02578 9.1375 4.86719 9.12657 4.86719C9.11563 4.86719 7.05391 5.94453 4.54922 7.2625ZM9.30704 6.32187C10.2422 7.15312 11.5109 7.77656 12.7742 8.01719C13.425 8.1375 14.5789 8.1375 15.2242 8.01719C16.4984 7.77109 17.8219 7.12031 18.7078 6.3C18.9922 6.0375 19.0524 6.00469 19.1672 6.04844C19.2383 6.07578 21.0484 7.02187 23.1813 8.14844L27.0695 10.1937V10.5656C27.0695 10.768 27.0313 11.2219 26.9875 11.5773C26.4844 15.4109 24.4227 18.7141 21.1742 20.8687C18.407 22.7117 14.918 23.4227 11.675 22.8156L11.1828 22.7227L10.9641 21.7492L10.7508 20.7812H10.1711H9.58594L9.40547 21.4375C9.30704 21.7984 9.20313 22.0937 9.17579 22.0937C9.08828 22.0937 8.11485 21.6344 7.61719 21.3609C7.19063 21.1203 7.11407 21.0602 7.08672 20.918C7.07032 20.825 6.98282 20.2562 6.88438 19.6437L6.70938 18.5391H6.11875H5.52813L5.39141 18.9984C5.31485 19.25 5.24922 19.4852 5.24922 19.518C5.24922 19.6766 5.04688 19.5289 4.5711 19.0203C3.12188 17.4617 2.18125 15.9031 1.56328 14.0273C1.21328 12.9773 0.928907 11.4187 0.928907 10.5656V10.1937L4.88281 8.11015C7.05391 6.96172 8.8586 6.02109 8.89688 6.02109C8.93516 6.01562 9.11563 6.15234 9.30704 6.32187ZM7.75391 22.4492C7.95625 22.5586 8.30625 22.7281 8.53594 22.8266L8.95703 23.0125L8.47578 24.6859C8.21328 25.6102 7.9836 26.3758 7.97266 26.3867C7.95078 26.4086 7.32188 22.4602 7.32735 22.3234C7.32735 22.2305 7.34375 22.2359 7.75391 22.4492Z" fill="black"/>
<path d="M19.5508 8.6462C18.9164 8.77198 18.3586 8.9962 17.85 9.32979C17.6148 9.48839 17.5273 9.51573 17.2758 9.51026C16.9258 9.49932 16.6633 9.54854 16.4391 9.66339C16.1547 9.81104 15.7445 10.2376 15.5148 10.6368C15.3945 10.8446 15.2852 11.0251 15.2797 11.036C15.2797 11.0415 15.1484 10.9649 14.9953 10.861C14.525 10.5493 14.1477 10.429 13.5898 10.4235C12.7859 10.4126 12.2828 10.6204 11.6211 11.2274L11.2437 11.572L10.9266 11.2384C10.2867 10.5548 9.36797 10.2595 8.46562 10.4509C8.30703 10.4837 7.68359 10.697 7.08203 10.9212C6.48047 11.1454 5.79687 11.4024 5.56719 11.4899L5.14062 11.6431L4.81797 11.1618C4.40781 10.5603 4.20547 10.4181 3.74062 10.4181C3.33594 10.4181 3.01328 10.604 2.84375 10.9376C2.74531 11.1345 2.73438 11.2548 2.73438 12.2884C2.73438 13.5517 2.76719 13.6993 3.11719 14.0439C3.33594 14.2626 3.53281 14.372 3.81719 14.4157L4.03594 14.4485L4.05781 15.0337C4.07422 15.5587 4.09062 15.6462 4.22187 15.8431C4.42422 16.1493 4.65391 16.2423 5.18437 16.2423H5.62187L5.99922 16.6689C6.71562 17.4837 7.60156 18.2548 8.39453 18.7634C9.64141 19.5618 10.5602 20.0485 11.0742 20.1743C12.0477 20.4149 13.6172 20.3165 14.9844 19.9282C16.0836 19.611 16.6852 19.3212 18.4078 18.2931L19.6164 17.5712L20.1305 17.5931C21.3336 17.6587 22.4766 17.2321 23.3844 16.3899C25.2273 14.6728 25.3148 11.8181 23.5812 9.99151C23.018 9.40635 22.2414 8.93604 21.4648 8.72276C21.0711 8.61885 19.9336 8.56964 19.5508 8.6462ZM21.1914 9.60323C22.1977 9.83839 23.0891 10.5603 23.532 11.4899C23.8383 12.1243 23.9148 12.4634 23.9148 13.0978C23.9148 13.7321 23.8383 14.0712 23.532 14.7056C23.1984 15.4001 22.6625 15.947 21.9844 16.286C21.3773 16.5868 20.9781 16.6853 20.3437 16.6853C19.5453 16.6907 18.7687 16.4446 18.2 16.0071L17.943 15.8103L17.6422 16.1439L17.3414 16.472L17.6039 16.6798C17.7516 16.7946 17.9922 16.9532 18.1508 17.0298C18.3039 17.1118 18.4187 17.1993 18.4023 17.2212C18.3641 17.2923 16.7727 18.222 16.2477 18.4845C14.5961 19.3103 12.3375 19.6329 11.0687 19.2282C9.69609 18.7907 8.71719 17.5329 8.60234 16.0728C8.56406 15.6024 8.65156 15.2579 8.88672 14.9517L9.02344 14.7767L8.73906 14.4431L8.44922 14.1149L8.28516 14.2735L8.11562 14.4376L7.92422 14.2407C7.82578 14.1314 7.62891 13.9837 7.50312 13.9071C7 13.6118 6.90703 13.5954 5.34297 13.5626L3.87187 13.5353L3.74062 13.3821C3.60937 13.229 3.60937 13.2126 3.62031 12.2884C3.64219 10.954 3.63672 10.954 4.76328 12.6931C4.77969 12.7204 5.61641 12.436 6.62266 12.0587C7.62891 11.6814 8.575 11.3532 8.72266 11.3314C9.51562 11.211 10.1664 11.5501 10.6258 12.3212C11.2875 13.4368 12.2555 14.0001 13.5187 14.0001H14V13.5353V13.0704H13.4914C12.9062 13.0704 12.5836 12.9829 12.157 12.704C11.7031 12.4032 11.7031 12.4306 12.2117 11.9384C12.7203 11.4462 13.0102 11.3149 13.5297 11.3149C14.3719 11.3149 14.9625 11.8017 15.2031 12.6931C15.4383 13.5735 15.7664 14.0439 16.4883 14.5415C16.718 14.7001 16.9148 14.8204 16.9203 14.8149C16.9914 14.722 17.3906 14.1095 17.3906 14.0876C17.3906 14.0712 17.2047 13.9345 16.975 13.7759C16.4609 13.4204 16.2695 13.1415 16.0781 12.4907C15.9359 11.9931 15.9359 11.9821 16.0234 11.6923C16.2641 10.9267 16.7234 10.3907 17.1391 10.3907C17.2156 10.3907 17.3742 10.429 17.4945 10.4782L17.7133 10.5657L18.0742 10.2814C19.0203 9.55948 20.0539 9.33526 21.1914 9.60323ZM6.86328 14.5907C7.16953 14.7329 7.38828 14.9243 7.55781 15.1923C7.64531 15.3399 7.67266 15.4931 7.68906 15.9087C7.7 16.204 7.76016 16.6251 7.81484 16.8493C7.86953 17.0735 7.91328 17.2595 7.90234 17.2704C7.86406 17.3087 6.78672 16.2259 6.46953 15.8267L6.10859 15.3673H5.53984H4.97656V14.897V14.4267L5.78594 14.4485C6.475 14.4649 6.62812 14.4868 6.86328 14.5907Z" fill="black"/>
</g>
<defs>
<clipPath id="clip0_499_7416">
<rect width="28" height="28" fill="white"/>
</clipPath>
</defs>
</svg>
