<svg width="25" height="27" viewBox="0 0 25 27" fill="none" xmlns="http://www.w3.org/2000/svg">
<path d="M21.3604 0.079071C20.5324 0.279461 19.8363 0.833172 19.4936 1.56091C19.3723 1.81403 19.3512 1.83512 19.1244 1.86677C18.5443 1.95641 17.7639 2.50485 17.4053 3.07966C17.2734 3.29059 17.1996 3.36442 17.1416 3.34333C16.3453 3.00583 15.6281 3.17985 14.9426 3.88122L14.5523 4.27673L14.2518 4.16598C13.8721 4.01833 13.2393 3.97087 12.8648 4.06051C12.7066 4.09743 12.4061 4.21872 12.1898 4.32946L11.8049 4.53512L11.5992 4.35583C11.1615 3.95505 10.5498 3.77575 9.77988 3.80739L9.29473 3.82848L9.21035 3.52262C8.84648 2.21481 7.90254 1.36052 6.44707 1.01774C5.91445 0.896454 4.68047 0.89118 4.1373 1.01774C2.05957 1.49235 0.699023 3.02692 0.809766 4.7777C0.841406 5.29977 1.03125 5.76911 1.36348 6.1277L1.57441 6.35446L1.44258 6.74997C1.32656 7.08747 1.31074 7.20876 1.33711 7.59372C1.34766 7.84157 1.40039 8.14215 1.44785 8.25817C1.5375 8.47438 1.5375 8.47965 1.3793 8.72223C1.05762 9.23376 1.03652 9.84548 1.31602 10.4097L1.47422 10.7261L1.24219 10.974C1.11563 11.1058 0.946875 11.3484 0.8625 11.5013C0.730664 11.7597 0.714844 11.8388 0.714844 12.3134C0.714844 12.767 0.730664 12.8724 0.841406 13.0781C0.909961 13.2099 0.999609 13.3523 1.03652 13.3998C1.0998 13.4736 1.08398 13.5422 0.87832 13.9377C0.498633 14.6865 0.398438 15.1242 0.398438 16.084C0.398438 16.8697 0.403711 16.9119 0.546094 17.2177C0.84668 17.8664 1.41621 18.4095 1.9541 18.5677C2.15449 18.631 2.15977 18.6363 2.19668 18.9263C2.2125 19.0898 2.30215 19.517 2.38652 19.8808C2.50254 20.3818 2.55527 20.7509 2.58691 21.4365C2.65547 22.7179 2.68184 22.95 2.79785 23.3191C3.00879 23.9994 3.34629 24.2789 3.95801 24.2841C4.94941 24.2841 5.31855 23.4615 5.26055 21.3627C5.23945 20.4978 5.21836 20.3027 5.0707 19.7068C4.84922 18.7998 4.84922 18.8209 5.18672 18.6996C5.55059 18.573 6.08848 18.2566 6.39961 17.9824C7.62305 16.9013 7.92363 14.8447 7.02715 13.6687C6.90059 13.5052 6.89531 13.4789 6.95859 13.3259C7.1748 12.7986 7.22754 12.2343 7.1168 11.6965C7.0377 11.3273 6.89004 11.0425 6.65801 10.8L6.46816 10.5996L6.56309 10.3359C6.74238 9.84548 6.73184 9.49216 6.51562 8.83298C6.48398 8.73278 6.50508 8.72751 6.73184 8.7486C6.86895 8.75915 7.19063 8.73805 7.44375 8.70114L7.90781 8.63786L8.16094 8.83298C8.79902 9.31813 9.65332 9.55544 10.4232 9.44997C10.6658 9.41833 11.0139 9.32868 11.2037 9.25485L11.5518 9.11774L11.7943 9.28122C12.791 9.97204 14.2096 9.92985 15.1219 9.19157C15.3223 9.02809 15.3961 9.007 15.8232 8.96481C16.6459 8.87516 17.015 8.75387 17.458 8.43219C17.6742 8.27399 17.727 8.25817 18.1172 8.2529C18.3492 8.24762 18.5813 8.22653 18.634 8.20544C18.7078 8.16852 18.7395 8.18962 18.7605 8.28454C18.7816 8.35309 18.8607 8.53766 18.9451 8.69059L19.0928 8.97536L18.9029 9.28122C18.46 10.0037 18.4547 10.8316 18.8977 11.475L19.077 11.7334L18.9398 11.9918C18.6234 12.5982 18.7764 13.5211 19.3037 14.1855L19.4566 14.3806L19.3248 14.5599C19.0189 14.966 18.8502 15.4564 18.8133 15.9996L18.8027 16.2105L18.3018 16.2158C17.9379 16.2263 17.7059 16.258 17.4527 16.3476L17.0994 16.4636L16.783 16.1525C16.2188 15.5935 15.5912 15.3615 14.5049 15.3088C12.3217 15.2033 10.7818 16.0629 10.3547 17.6185C10.2703 17.9244 10.2598 18.2619 10.2598 21.1728C10.2598 24.7166 10.2545 24.6638 10.6025 25.4021C11.0297 26.325 11.615 26.8259 12.4166 26.9631C13.3764 27.1265 14.2623 26.5834 14.7949 25.5129C15.1324 24.822 15.1904 24.5004 15.1904 23.1662V22.0535L15.5754 21.9902C15.7811 21.9533 16.0816 21.8795 16.2293 21.8215L16.5088 21.7213L16.6617 21.832C17.1469 22.1748 17.8746 22.3435 18.4811 22.2591C18.8449 22.2064 19.4197 21.9586 19.773 21.7002C19.8943 21.6105 20.0209 21.5683 20.1686 21.5683C20.4797 21.5683 21.007 21.4312 21.3393 21.2677C21.6873 21.099 22.0986 20.6982 22.2305 20.4082C22.3043 20.2394 22.3518 20.1972 22.4625 20.1972C22.5363 20.1972 22.7209 20.1392 22.8686 20.0707C23.6648 19.7015 24.0182 18.9263 23.8916 17.8189C23.86 17.5552 23.823 17.3179 23.8072 17.2916C23.7967 17.2705 23.86 17.1439 23.9602 17.0174C24.5139 16.2896 24.5719 15.3193 24.092 14.6127L23.9391 14.3806L24.0709 14.0853C24.2555 13.6687 24.2924 13.3259 24.1869 12.9146C24.0867 12.5297 23.8494 12.0709 23.6174 11.8283L23.4592 11.6648L23.5646 11.5119C23.7439 11.2588 23.8916 10.742 23.8916 10.3623C23.8916 9.99841 23.7492 9.49216 23.5646 9.19157L23.4645 9.01755L23.6068 8.66422C23.8547 8.04196 23.8336 7.30895 23.5436 6.66032L23.4223 6.37555L23.6754 6.0486C24.0287 5.60036 24.2238 5.22594 24.4295 4.64059C24.5982 4.15016 24.5982 4.11852 24.6035 3.21676C24.6035 2.4943 24.5824 2.22009 24.5086 1.95114C24.2291 0.912273 23.591 0.279461 22.6313 0.0737972C22.2041 -0.015852 21.7453 -0.015852 21.3604 0.079071ZM22.742 1.04411C23.4803 1.37106 23.7703 2.05661 23.7229 3.36442C23.7018 3.91286 23.6701 4.10798 23.5541 4.42966C23.3695 4.94645 23.148 5.31559 22.7473 5.75329C22.51 6.01169 22.415 6.15934 22.415 6.25954C22.415 6.33864 22.5152 6.60759 22.6365 6.85544C22.8475 7.27731 22.8633 7.33005 22.8633 7.76247C22.8633 8.21598 22.8633 8.22126 22.6418 8.53766C22.3676 8.92262 22.3518 9.10192 22.568 9.3445C23.09 9.9404 23.1111 10.6365 22.626 11.2799C22.3254 11.6754 22.3412 11.7966 22.7262 12.1974C23.1217 12.6193 23.3326 13.0148 23.3273 13.3418C23.3221 13.6002 23.2219 13.8533 23.0689 13.9798C23.0215 14.022 22.9477 14.1328 22.9055 14.2224C22.8158 14.4386 22.9002 14.6601 23.148 14.8922C23.533 15.2402 23.6227 15.7359 23.3959 16.2158C23.3273 16.3582 23.2219 16.5269 23.1586 16.5797C23.0953 16.6377 22.9951 16.7642 22.9371 16.8591C22.8316 17.0279 22.8316 17.0384 22.9213 17.4392C23.1744 18.5625 22.9213 19.2375 22.2041 19.3271C21.6715 19.3957 21.5818 19.459 21.4764 19.8597C21.3445 20.3396 20.9068 20.5875 20.0314 20.6718C19.7625 20.6982 19.5357 20.7246 19.5357 20.7246C19.5305 20.7246 19.4092 20.8195 19.2721 20.9355C18.9346 21.215 18.5443 21.3574 18.1225 21.3574C17.6953 21.3574 17.4211 21.2572 17.0256 20.9619C16.6617 20.6877 16.5193 20.6666 16.1871 20.8511C15.6334 21.157 14.4838 21.2308 13.9512 20.9935C13.3975 20.7457 13.0441 20.2394 12.9703 19.5697C12.9387 19.2797 12.8965 19.1478 12.8121 19.0529C12.6486 18.8841 12.3533 18.8841 12.1846 19.0634C11.942 19.3218 12.0844 20.2552 12.4588 20.8406C12.7963 21.3732 13.5135 21.8742 14.0725 21.9638L14.2939 22.0007V23.1134C14.2939 24.0468 14.2781 24.2894 14.1938 24.5795C13.8721 25.7132 13.1865 26.2617 12.3797 26.0297C11.9156 25.8925 11.5096 25.3863 11.2564 24.6269C11.1721 24.3632 11.1615 24.0627 11.1404 21.4945C11.1193 18.4148 11.1457 17.9507 11.3672 17.4867C11.6203 16.9541 12.2162 16.5322 13.0283 16.3107C13.5188 16.1789 14.874 16.1841 15.3223 16.316C15.7758 16.4478 16.108 16.6798 16.4402 17.0965C16.841 17.6027 16.899 17.6185 17.4527 17.339C17.8799 17.1228 17.9326 17.1123 18.3598 17.1123C18.7816 17.1123 18.8449 17.1281 19.193 17.3127C19.7203 17.5869 19.9629 17.5605 20.0895 17.2283C20.1527 17.0648 20.1053 16.8961 19.9154 16.6482C19.6412 16.2843 19.6412 15.7781 19.9049 15.3193C20.042 15.0925 20.3426 14.7656 20.4217 14.7656C20.4955 14.7656 20.6221 14.4123 20.5852 14.3068C20.5693 14.2541 20.4111 14.0642 20.2424 13.8797C19.8732 13.4789 19.7256 13.2047 19.6887 12.8461C19.657 12.5402 19.7309 12.3504 19.9945 12.0234C20.216 11.7597 20.1949 11.5963 19.9102 11.2904C19.657 11.0215 19.4672 10.6523 19.4619 10.4361C19.4619 10.1724 19.6201 9.76637 19.8205 9.53962C20.2055 9.10719 20.2266 8.98063 19.984 8.64841C19.773 8.35837 19.6359 8.04196 19.6096 7.80466C19.5938 7.64118 19.6096 7.62008 19.7256 7.60427C20.5852 7.4988 21.2812 6.83434 21.4658 5.93786C21.5871 5.34723 21.4184 4.957 21.0334 4.957C20.775 4.957 20.6432 5.14157 20.6063 5.56344C20.5377 6.25954 20.1158 6.68141 19.4145 6.74469C19.0822 6.77633 19.0295 6.79743 18.8133 6.99782C18.3756 7.40387 18.1699 7.45661 17.7217 7.27731C17.3262 7.11911 17.1152 7.20348 16.9992 7.56735C16.9043 7.85739 16.4402 8.01032 15.3908 8.09997C15.0691 8.12634 15.0006 8.1527 14.6895 8.38473C14.2096 8.73805 13.8404 8.87516 13.3447 8.88044C12.8701 8.88044 12.5326 8.74333 12.0738 8.36364C11.71 8.06305 11.5939 8.05778 11.1035 8.30563C10.2229 8.7486 9.24727 8.62204 8.53008 7.96813C8.3666 7.82047 8.17676 7.68864 8.11348 7.67282C8.04492 7.657 7.80234 7.68864 7.57559 7.75192C7.08516 7.87848 6.80566 7.88376 6.30469 7.77829C5.54531 7.62008 4.75957 7.12438 4.31133 6.52321C4.18477 6.35973 4.13203 6.32809 3.96855 6.32809C3.61523 6.33337 3.42539 6.61286 3.55723 6.92399C3.71543 7.30895 4.51699 8.04196 5.01797 8.26344C5.22363 8.35309 5.27109 8.40583 5.30273 8.54821C5.32383 8.64841 5.41875 8.83298 5.51367 8.96481C5.86699 9.44997 5.86699 9.93512 5.51367 10.3834C5.27637 10.684 5.26055 10.9582 5.46621 11.1216C5.54531 11.1849 5.65078 11.2324 5.70352 11.2324C5.99883 11.2324 6.27832 11.7492 6.27832 12.2871C6.27832 12.6984 6.19395 12.9093 5.95664 13.1361C5.64023 13.4314 5.6666 13.5738 6.10957 14.0168C6.53672 14.4386 6.64746 14.6918 6.64746 15.2824C6.64746 16.0365 6.41016 16.6429 5.89336 17.1756C5.53477 17.55 5.03906 17.8295 4.55391 17.9297C4.34824 17.9771 4.20586 18.0404 4.10039 18.1511C3.94746 18.3041 3.94746 18.3093 3.98438 18.7365C4.0002 18.9738 4.08984 19.4642 4.17949 19.8281C4.44316 20.9091 4.44844 22.6336 4.19531 23.1714C4.04238 23.4931 3.8209 23.4668 3.67852 23.1082C3.56777 22.834 3.54141 22.5914 3.4834 21.4365C3.44648 20.6244 3.4043 20.3027 3.27773 19.7384C3.18809 19.3535 3.09844 18.8578 3.08262 18.631C3.03516 18.072 2.97187 17.9613 2.6291 17.8453C2.0332 17.6554 1.62188 17.3548 1.41094 16.9593C1.30547 16.7642 1.29492 16.664 1.29492 16.0048C1.3002 15.1506 1.3793 14.8394 1.75898 14.2224C2.15449 13.5791 2.17559 13.5316 2.1123 13.3629C2.08066 13.2785 1.98574 13.1361 1.90137 13.0517C1.4373 12.5718 1.50059 11.9074 2.04375 11.4539C2.67656 10.9318 2.71875 10.8211 2.39707 10.4361C1.89609 9.83493 1.89082 9.46051 2.38125 8.9279C2.63965 8.64841 2.64492 8.48493 2.41816 8.1738C2.25469 7.95758 2.24414 7.91012 2.24414 7.51462C2.24414 7.1402 2.26523 7.05583 2.41816 6.76052C2.66602 6.27536 2.6502 6.17516 2.24941 5.75856C1.7748 5.25759 1.7168 5.13102 1.72207 4.58786C1.72207 4.05524 1.81699 3.7652 2.15449 3.25368C2.55527 2.64196 3.25664 2.1779 4.12148 1.94587C4.70684 1.78766 5.81426 1.77712 6.33105 1.91423C7.41211 2.20427 8.1082 2.86345 8.35605 3.82848C8.40352 4.00778 8.44043 4.23981 8.44043 4.34528C8.44043 4.61423 8.56699 4.83044 8.75684 4.89372C8.88867 4.94118 8.97832 4.93063 9.25781 4.82516C9.66914 4.66696 10.1332 4.65114 10.5498 4.7777C10.9084 4.88317 11.1035 5.07302 11.151 5.36833C11.1721 5.50544 11.2406 5.64782 11.3197 5.73219C11.5307 5.94313 11.7627 5.87458 12.1266 5.51071C12.791 4.84098 13.6189 4.73024 14.3467 5.22067C14.7369 5.47907 15.0059 5.42633 15.1957 5.04665C15.4541 4.5404 15.9129 4.13434 16.2715 4.10798C16.5826 4.08688 16.7039 4.11852 17.0045 4.29782C17.1732 4.39802 17.3789 4.48239 17.458 4.48239C17.6109 4.48239 17.8799 4.30309 17.8799 4.2029C17.8799 4.16598 17.9484 3.99196 18.0328 3.81266C18.3334 3.18513 18.8977 2.77907 19.5621 2.71052C19.7467 2.68942 19.9312 2.63669 19.984 2.58923C20.0367 2.54177 20.1422 2.34138 20.2266 2.14626C20.4639 1.56091 20.9332 1.11794 21.4658 0.965008C21.7928 0.870087 22.4467 0.912273 22.742 1.04411Z" fill="black"/>
</svg>
