<svg width="11" height="15" viewBox="0 0 11 15" fill="none" xmlns="http://www.w3.org/2000/svg">
<path d="M8.28553 5.40257C8.28553 7.01799 7.00883 8.29469 5.39341 8.29469C3.80405 8.29469 2.50129 7.01799 2.50129 5.40257C2.50129 3.81321 3.80405 2.51045 5.39341 2.51045C7.00883 2.51045 8.28553 3.81321 8.28553 5.40257ZM0.338717 7.27854C1.2767 9.80589 3.80405 13.3233 4.89837 14.7564C5.15892 15.069 5.65397 15.069 5.91452 14.7564C6.98278 13.3233 9.53618 9.80589 10.4742 7.27854C10.6826 6.70533 10.8129 6.05395 10.8129 5.40257C10.8129 2.43228 8.38976 0.00915527 5.39341 0.00915527C2.42313 0.00915527 0 2.43228 0 5.40257C0 6.05395 0.104221 6.70533 0.338717 7.27854Z" fill="#B798CF"/>
</svg>
