<svg width="18" height="19" viewBox="0 0 18 19" fill="none" xmlns="http://www.w3.org/2000/svg">
<path fill-rule="evenodd" clip-rule="evenodd" d="M8.07692 1.75766C4.38086 1.75766 1.38461 4.75391 1.38461 8.44996C1.38461 12.146 4.38086 15.1423 8.07692 15.1423C9.88676 15.1423 11.5288 14.4238 12.7334 13.2566C12.7541 13.2284 12.7773 13.2013 12.8028 13.1758C12.8283 13.1503 12.8553 13.1272 12.8836 13.1065C14.0508 11.9019 14.7692 10.2598 14.7692 8.44996C14.7692 4.75391 11.773 1.75766 8.07692 1.75766ZM14.2568 13.6508C15.4406 12.2456 16.1538 10.4311 16.1538 8.44996C16.1538 3.9892 12.5377 0.373047 8.07692 0.373047C3.61616 0.373047 0 3.9892 0 8.44996C0 12.9107 3.61616 16.5269 8.07692 16.5269C10.058 16.5269 11.8726 15.8136 13.2777 14.6298L16.8182 18.1703C17.0885 18.4406 17.5269 18.4406 17.7972 18.1703C18.0676 17.8999 18.0676 17.4616 17.7972 17.1912L14.2568 13.6508Z" fill="white"/>
</svg>
