<svg width="14" height="18" viewBox="0 0 14 18" fill="none" xmlns="http://www.w3.org/2000/svg">
<path d="M7 0.84375C5.35897 0.84375 3.78516 1.49565 2.62478 2.65603C1.4644 3.81641 0.8125 5.39022 0.8125 7.03125C1.29766 13.2581 6.85672 17.3606 6.67375 17.6119C6.76902 17.6797 6.88305 17.7162 7 17.7162C7.11695 17.7162 7.23098 17.6797 7.32625 17.6119C7.19201 17.2453 12.7626 13.1249 13.1875 7.03125C13.1875 5.39022 12.5356 3.81641 11.3752 2.65603C10.2148 1.49565 8.64103 0.84375 7 0.84375ZM7 9.84375C6.44374 9.84375 5.89997 9.6788 5.43746 9.36976C4.97495 9.06072 4.61446 8.62146 4.40159 8.10755C4.18872 7.59363 4.13302 7.02813 4.24154 6.48256C4.35006 5.93699 4.61793 5.43585 5.01126 5.04251C5.4046 4.64918 5.90574 4.38131 6.45131 4.27279C6.99688 4.16427 7.56238 4.21997 8.0763 4.43284C8.59021 4.64571 9.02947 5.0062 9.33851 5.46871C9.64755 5.93122 9.8125 6.47499 9.8125 7.03125C9.8125 7.77717 9.51618 8.49254 8.98874 9.01999C8.46129 9.54743 7.74592 9.84375 7 9.84375Z" fill="#3478DD" fill-opacity="0.6"/>
</svg>
