<svg width="18" height="24" viewBox="0 0 18 24" fill="none" xmlns="http://www.w3.org/2000/svg">
<path d="M9 0.658203C4.02128 0.658203 0 4.61722 0 9.51886C0 13.0066 2.17553 16.4533 5 19.6582C7.10638 22.0619 8.4734 23.4697 8.56915 23.5168C8.71276 23.6111 8.85638 23.6582 9 23.6582C9.14362 23.6582 9.28724 23.6111 9.43085 23.5168C9.5266 23.4697 10.8936 22.0148 13 19.6582C15.8245 16.4533 18 13.0066 18 9.51886C18 4.61722 13.9787 0.658203 9 0.658203ZM9 12.818C7.08511 12.818 5.55319 11.3098 5.55319 9.4246C5.55319 7.53935 7.08511 6.03116 9 6.03116C10.9149 6.03116 12.4468 7.53935 12.4468 9.4246C12.4468 11.2627 10.9149 12.818 9 12.818Z" fill="#299B8E"/>
</svg>
